<svg width="838" height="490" viewBox="0 0 838 490" fill="none" xmlns="http://www.w3.org/2000/svg">
<path opacity="0.2" d="M834.854 342.41L701.394 269.853C698.244 268.12 698.244 263.605 701.394 261.872L826.138 193.988C829.289 192.255 829.289 187.74 826.138 186.007L688.584 111.192C685.434 109.46 685.434 104.945 688.584 103.212C691.734 101.479 691.734 96.9643 688.584 95.2318L527.876 7.81629C525.146 6.34624 521.838 6.34624 519.161 7.86879L473.746 33.1746C471.016 34.6972 467.761 34.6972 465.031 33.2272L405.967 1.09606C403.237 -0.373988 399.929 -0.373989 397.251 1.14856L299.283 55.9079C293.088 59.373 293.088 68.2458 299.283 71.711L319.549 82.9988C325.744 86.464 325.744 95.3368 319.549 98.8019L141.095 198.345C138.365 199.868 135.11 199.868 132.38 198.398L88.5934 174.614C85.8633 173.144 82.5557 173.144 79.8781 174.667L5.43059 216.196C-0.764623 219.661 -0.764623 228.534 5.43059 231.999L78.6706 272.845C82.1357 274.788 86.3358 274.788 89.8009 272.898L131.802 250.059C135.267 248.169 139.468 248.169 142.933 250.112L155.586 257.147C163.461 261.557 163.461 272.898 155.586 277.308L62.08 329.442C57.3023 332.12 57.3023 338.997 62.08 341.675L182.834 409.035C184.934 410.19 187.507 410.242 189.607 409.087L211.5 397.169C213.6 396.014 216.173 396.014 218.273 397.222L341.547 465.999C343.647 467.154 346.22 467.207 348.32 466.052L447.023 412.342C449.123 411.187 451.696 411.187 453.796 412.395L583.528 484.742C584.893 485.477 586.52 485.53 587.885 484.742L834.854 350.443C838.004 348.658 838.004 344.143 834.854 342.41Z" fill="#E3E6F6"/>
<g opacity="0.06">
<path opacity="0.06" d="M311.329 466.368L343.492 448.232C346.466 446.584 350.211 446.584 353.185 448.342L379.62 463.84C381.713 465.049 381.823 468.127 379.731 469.446L349.33 488.461C346.246 490.44 342.39 490.44 339.196 488.571L311.219 472.084C309.126 470.875 309.126 467.687 311.329 466.368Z" fill="#00467F"/>
</g>
<path d="M558.611 311.938L570.066 418.446C570.176 418.995 569.075 419.545 567.643 419.545C566.211 419.545 564.999 419.105 564.889 418.446L546.495 310.07L558.611 311.938Z" fill="#1A3474"/>
<path d="M469.721 360.301L472.034 467.467C472.034 468.017 473.246 468.567 474.678 468.567C476.11 468.567 477.321 468.127 477.321 467.467L481.617 358.322L469.721 360.301Z" fill="#1A3474"/>
<path d="M301.636 262.586L303.949 369.753C303.949 370.303 305.16 370.852 306.592 370.852C308.024 370.852 309.236 370.413 309.236 369.753L313.532 260.608L301.636 262.586Z" fill="#1A3474"/>
<path d="M371.25 219.39L388.873 323.149C388.983 323.699 390.195 324.249 391.627 324.249C393.059 324.249 394.16 323.809 394.05 323.149L382.815 219.39H371.25Z" fill="#1A3474"/>
<path d="M455.072 366.566L301.305 279.953C292.383 274.897 291.943 262.257 300.424 256.541L356.379 220.929C368.606 212.795 384.357 212.355 397.024 219.72L555.196 311.279C564.558 316.664 564.228 330.184 554.755 335.24L492.191 367.115C480.516 373.271 466.527 373.051 455.072 366.566Z" fill="#C7DFF0"/>
<path d="M455.182 360.96L301.416 274.347C292.494 269.291 292.053 256.651 300.535 250.935L356.49 215.323C368.716 207.189 384.467 206.75 397.244 214.114L555.306 305.563C564.559 310.949 564.338 324.468 554.866 329.524L492.302 361.29C480.736 367.555 466.747 367.445 455.182 360.96Z" fill="#F3F8FC"/>
<g opacity="0.06">
<path opacity="0.06" d="M394.49 231.041L400.659 230.821L400.328 223.457L394.16 223.677C393.719 222.797 393.059 222.028 392.177 221.149L396.473 218.511L387.221 213.674L382.925 216.312C381.493 215.873 379.951 215.653 378.409 215.433L378.299 211.916L365.522 212.355L365.632 215.873C364.09 216.202 362.658 216.642 361.226 217.082L356.71 214.773L347.898 220.269L352.414 222.577C351.643 223.457 351.092 224.336 350.652 225.215L344.483 225.435L344.814 232.799L350.982 232.58C351.423 233.459 352.084 234.228 352.965 235.108L348.669 237.746L357.921 242.582L362.217 239.944C363.649 240.384 365.191 240.603 366.733 240.823L366.843 244.341L379.621 243.901L379.51 240.384C381.052 240.054 382.484 239.614 383.916 239.175L388.432 241.483L397.244 235.987L392.728 233.679C393.389 232.799 394.05 231.92 394.49 231.041ZM364.64 233.019C360.124 230.601 359.904 226.424 364.31 223.786C368.716 221.149 375.876 220.819 380.502 223.237C385.018 225.655 385.238 229.832 380.832 232.47C376.426 235.108 369.156 235.328 364.64 233.019Z" fill="#00467F"/>
</g>
<g opacity="0.06">
<path opacity="0.06" d="M506.29 299.078L512.459 298.858L512.128 291.494L505.96 291.714C505.519 290.834 504.858 290.065 503.977 289.186L508.273 286.548L499.021 281.712L494.725 284.35C493.293 283.91 491.751 283.69 490.209 283.47L490.099 279.953L477.321 280.393L477.432 283.91C475.889 284.24 474.458 284.679 473.026 285.119L468.51 282.811L459.698 288.306L464.214 290.615C463.443 291.494 462.892 292.373 462.451 293.253L456.283 293.472L456.614 300.837L462.782 300.617C463.223 301.496 463.883 302.266 464.765 303.145L460.469 305.783L469.721 310.619L474.017 307.981C475.449 308.421 476.991 308.641 478.533 308.861L478.643 312.378L491.42 311.938L491.31 308.421C492.852 308.091 494.284 307.651 495.716 307.212L500.232 309.52L509.044 304.024L504.528 301.716C505.299 300.837 505.85 300.067 506.29 299.078ZM476.44 301.057C471.924 298.638 471.704 294.462 476.11 291.824C480.516 289.076 487.675 288.856 492.302 291.274C496.818 293.692 497.038 297.869 492.632 300.507C488.336 303.255 481.066 303.475 476.44 301.057Z" fill="#00467F"/>
</g>
<g opacity="0.06">
<path opacity="0.06" d="M343.932 262.257C348.373 262.257 351.973 260.141 351.973 257.53C351.973 254.92 348.373 252.804 343.932 252.804C339.492 252.804 335.892 254.92 335.892 257.53C335.892 260.141 339.492 262.257 343.932 262.257Z" fill="#00467F"/>
</g>
<g opacity="0.06">
<path opacity="0.06" d="M411.674 277.205C416.114 277.205 419.714 275.089 419.714 272.479C419.714 269.868 416.114 267.752 411.674 267.752C407.233 267.752 403.633 269.868 403.633 272.479C403.633 275.089 407.233 277.205 411.674 277.205Z" fill="#00467F"/>
</g>
<g opacity="0.06">
<path opacity="0.06" d="M401.099 272.479C401.099 274.347 398.455 275.886 395.261 275.886C392.067 275.886 389.423 274.347 389.423 272.479C389.423 270.61 392.067 269.071 395.261 269.071C398.455 269.071 401.099 270.61 401.099 272.479Z" fill="#00467F"/>
</g>
<g opacity="0.06">
<path opacity="0.06" d="M437.338 270.39C437.338 273.028 433.703 275.117 429.297 275.117C424.891 275.117 421.256 273.028 421.256 270.39C421.256 267.752 424.891 265.664 429.297 265.664C433.703 265.664 437.338 267.752 437.338 270.39Z" fill="#00467F"/>
</g>
<path opacity="0.05" d="M370.698 258.08C370.698 260.718 367.063 262.806 362.657 262.806C358.252 262.806 354.617 260.718 354.617 258.08C354.617 255.442 358.252 253.354 362.657 253.354C367.063 253.354 370.698 255.442 370.698 258.08Z" fill="#00004B"/>
<g opacity="0.06">
<path opacity="0.06" d="M405.505 292.044L380.392 306.332C380.392 306.332 376.977 308.86 380.722 310.839C384.467 312.817 425.552 336.449 425.552 336.449C425.552 336.449 428.416 338.867 433.262 336.449C438.109 334.031 458.707 321.83 458.707 321.83C458.707 321.83 461.13 319.522 455.182 316.774C449.234 314.136 411.123 291.604 411.123 291.604C411.123 291.604 407.818 290.725 405.505 292.044Z" fill="#00467F"/>
</g>
<path d="M347.04 252.53L353.209 250.332L356.293 258.795L350.124 260.994C347.811 261.873 345.168 260.664 344.287 258.246C343.405 255.938 344.617 253.41 347.04 252.53Z" fill="#9DC0DD"/>
<path d="M353.87 250.991C353.87 244.946 358.826 240 364.884 240C370.943 240 375.899 244.946 375.899 250.991C375.899 257.037 370.943 261.983 364.884 261.983C358.826 261.873 353.87 257.037 353.87 250.991Z" fill="#C7DFF0"/>
<path d="M355.632 252.86C355.632 252.86 355.742 252.86 355.632 252.86L356.183 253.08C356.293 253.08 356.293 253.08 356.403 253.08L364.884 246.705C364.994 246.595 364.994 246.485 364.994 246.375L364.884 246.265L364.444 246.155C364.334 246.155 364.334 246.155 364.223 246.155L364.003 246.375C364.113 245.935 364.554 245.496 364.994 245.276C365.435 245.056 365.986 244.836 366.536 244.946C366.757 245.056 366.977 245.166 367.087 245.386C367.528 245.935 367.528 246.705 367.197 247.474C366.867 247.474 366.426 247.474 365.986 247.584C364.774 247.804 363.673 248.573 363.562 249.233C363.562 249.343 363.562 249.453 363.562 249.672C363.562 249.892 363.783 250.002 364.003 250.222C364.113 250.332 364.334 250.332 364.554 250.442C365.325 250.882 366.316 250.552 367.197 249.563C367.528 249.233 367.748 248.793 367.968 248.354C368.189 248.463 368.519 248.793 368.629 249.123C369.07 250.002 368.96 250.772 368.739 251.321C368.519 251.211 368.409 251.211 368.189 251.101C367.858 250.991 367.528 250.882 367.197 250.882C365.986 250.772 364.994 251.541 364.774 252.31C364.664 252.75 364.774 253.3 365.655 253.52H365.765C365.876 253.52 365.986 253.629 366.096 253.629C366.977 253.849 368.299 253.41 369.07 252.53C369.29 252.97 369.4 253.52 369.4 254.069C369.29 254.619 368.629 255.278 367.858 255.608C367.638 255.718 367.307 255.718 366.977 255.718C366.867 255.608 366.757 255.608 366.647 255.498L367.418 255.388C367.528 255.388 367.638 255.278 367.638 255.168C367.638 255.058 367.638 255.058 367.528 254.948C367.528 254.948 367.528 254.948 367.418 254.948L366.977 254.838H366.867L365.655 254.948H365.545L356.843 255.828C356.733 255.828 356.623 255.938 356.623 256.048C356.623 256.048 356.623 256.048 356.623 256.157C356.623 256.157 356.623 256.267 356.733 256.267L357.174 256.377H357.284L365.545 255.498C365.876 255.828 366.206 256.048 366.647 256.157C367.087 256.377 367.748 256.377 368.299 256.267C368.96 256.048 369.621 255.498 369.951 254.948C370.061 254.729 370.171 254.509 370.171 254.289C370.281 253.41 370.061 252.53 369.4 251.871C369.841 250.991 369.841 250.002 369.4 249.123C369.18 248.573 368.629 248.134 368.079 247.914C368.409 247.035 368.409 246.045 367.858 245.386C367.528 244.946 367.087 244.726 366.647 244.616C365.876 244.287 364.884 244.397 364.223 244.836C363.232 245.386 362.791 246.375 363.012 247.254L355.742 252.64C355.632 252.53 355.632 252.64 355.632 252.86C355.632 252.75 355.632 252.86 355.632 252.86ZM364.664 249.892C364.334 249.672 364.444 249.563 364.444 249.453C364.554 249.013 365.435 248.463 366.536 248.244C366.647 248.244 366.757 248.244 366.977 248.244C366.867 248.573 366.647 248.793 366.426 249.013C366.096 249.233 365.435 250.002 364.664 249.892ZM367.858 251.431C367.968 251.541 368.189 251.541 368.299 251.651L368.189 251.761C367.528 252.53 366.536 252.97 365.765 252.86C365.545 252.75 365.435 252.53 365.545 252.31C365.655 251.871 366.426 251.211 367.418 251.321C367.638 251.431 367.748 251.431 367.858 251.431Z" fill="#F3F3F8"/>
<path d="M348.362 251.761L346.82 252.31L350.014 261.433L351.446 260.994L348.362 251.761Z" fill="#C7DFF0"/>
<path d="M350.896 250.662L349.354 251.211L352.438 260.444L353.98 259.895L350.896 250.662Z" fill="#C7DFF0"/>
<path d="M355.411 258.905C355.191 258.026 354.751 257.257 354.64 256.377C354.42 255.608 354.31 254.948 353.979 254.179C353.539 253.08 353.208 251.651 352.658 250.552C353.979 250.112 355.081 249.673 355.081 249.673C355.081 249.673 356.403 250.002 357.614 253.3C358.826 256.597 358.165 258.136 358.165 258.136C358.165 258.136 356.843 258.576 355.411 259.125C355.411 259.015 355.411 259.015 355.411 258.905Z" fill="#9DC0DD"/>
<path d="M353.429 249.892L351.777 250.442L354.971 259.675L356.513 259.125L353.429 249.892Z" fill="#C7DFF0"/>
<path d="M458.706 316.445V318.203C458.706 319.742 457.825 321.281 456.393 321.94C450.886 324.908 437.007 332.272 434.143 333.811C430.619 335.79 426.984 335.68 425.772 335.13C420.595 332.712 380.612 309.08 379.73 308.641C378.299 307.871 378.409 304.684 378.409 304.684L395.261 306.003L458.706 316.445Z" fill="#BBDBED"/>
<path d="M404.954 288.306L379.841 302.595C379.841 302.595 376.426 305.123 380.171 307.102C384.026 309.08 425.001 332.712 425.001 332.712C425.001 332.712 427.865 335.13 432.712 332.712C437.558 330.294 458.156 318.093 458.156 318.093C458.156 318.093 460.579 315.785 454.631 313.037C448.683 310.399 410.572 287.867 410.572 287.867C410.572 287.867 407.268 286.878 404.954 288.306Z" fill="#E1F5FA"/>
<path d="M403.522 306.332L394.821 311.279C394.821 311.279 393.609 312.158 394.931 312.817C396.253 313.477 410.572 321.721 410.572 321.721C410.572 321.721 411.563 322.6 413.215 321.721C414.868 320.841 422.027 316.664 422.027 316.664C422.027 316.664 422.908 315.895 420.816 314.906C418.723 314.026 405.505 306.113 405.505 306.113C405.505 306.113 404.293 305.893 403.522 306.332Z" fill="#BBDBED"/>
<path d="M411.123 286.878L459.367 315.565C459.367 315.565 462.562 315.016 462.892 313.477L470.052 277.095C470.272 276.106 469.832 275.117 468.95 274.567L420.816 247.308C418.833 246.209 416.3 247.528 416.3 247.528L409.911 284.35C409.801 285.449 410.242 286.438 411.123 286.878Z" fill="#BBDBED"/>
<path d="M408.699 287.317L457.384 315.455C458.816 316.225 460.469 315.455 460.799 313.917L468.289 277.974C468.509 276.985 468.069 275.996 467.188 275.446L418.612 247.638C417.291 246.869 415.528 247.638 415.198 249.177L407.598 284.789C407.377 285.778 407.818 286.768 408.699 287.317Z" fill="#E1F5FA"/>
<path d="M409.03 285.559L459.257 314.136L466.967 276.765L416.85 248.517L409.03 285.559Z" fill="white"/>
<path d="M398.676 299.957L400.879 301.166C400.989 301.166 400.989 301.166 401.099 301.166L402.972 300.067C403.082 300.067 403.082 299.957 402.972 299.957L400.769 298.748C400.658 298.748 400.658 298.748 400.548 298.748L398.676 299.847C398.676 299.957 398.676 299.957 398.676 299.957Z" fill="#BBDBED"/>
<path d="M401.87 301.716L404.734 303.365C404.844 303.365 404.844 303.365 404.954 303.365L406.827 302.266C406.937 302.266 406.937 302.156 406.827 302.156L403.963 300.507C403.853 300.507 403.853 300.507 403.743 300.507L401.87 301.606C401.76 301.716 401.76 301.716 401.87 301.716Z" fill="#BBDBED"/>
<path d="M412.775 292.263L410.902 291.274C410.792 291.274 410.792 291.274 410.682 291.274L409.691 291.824C409.58 291.824 409.58 291.934 409.691 291.934L411.563 292.923C411.673 292.923 411.673 292.923 411.783 292.923L412.775 292.373C412.775 292.373 412.775 292.373 412.775 292.263Z" fill="#BBDBED"/>
<path d="M394.931 297.869L397.795 299.518C397.905 299.518 397.905 299.518 398.015 299.518L399.887 298.419C399.997 298.419 399.997 298.309 399.887 298.309L397.023 296.66C396.913 296.66 396.913 296.66 396.803 296.66L394.931 297.759C394.931 297.869 394.931 297.869 394.931 297.869Z" fill="#BBDBED"/>
<path d="M410.792 293.253C410.902 293.253 410.902 293.143 410.792 293.143L409.25 292.263C409.14 292.263 409.14 292.263 409.029 292.263L407.487 293.253C407.377 293.253 407.377 293.363 407.487 293.363L409.029 294.242C409.14 294.242 409.14 294.242 409.25 294.242L410.792 293.253Z" fill="#BBDBED"/>
<path d="M424.34 314.356L426.543 315.565C426.653 315.565 426.653 315.565 426.763 315.565L428.636 314.466C428.746 314.466 428.746 314.356 428.636 314.356L426.433 313.147C426.323 313.147 426.323 313.147 426.212 313.147L424.34 314.246C424.23 314.356 424.23 314.356 424.34 314.356Z" fill="#BBDBED"/>
<path d="M418.392 307.871L419.934 308.751C420.044 308.751 420.044 308.751 420.154 308.751L421.697 307.761C421.807 307.761 421.807 307.651 421.697 307.651L420.154 306.772C420.044 306.772 420.044 306.772 419.934 306.772L418.392 307.761V307.871Z" fill="#BBDBED"/>
<path d="M415.418 293.802L413.546 292.813C413.436 292.813 413.436 292.813 413.325 292.813L412.334 293.363C412.224 293.363 412.224 293.472 412.334 293.472L414.207 294.462C414.317 294.462 414.317 294.462 414.427 294.462L415.418 293.912C415.418 293.802 415.418 293.802 415.418 293.802Z" fill="#BBDBED"/>
<path d="M425.221 311.498L426.764 310.509C426.874 310.509 426.874 310.399 426.764 310.399L425.221 309.52C425.111 309.52 425.111 309.52 425.001 309.52L423.459 310.509C423.349 310.509 423.349 310.619 423.459 310.619L425.001 311.498C425.001 311.608 425.111 311.608 425.221 311.498Z" fill="#BBDBED"/>
<path d="M405.945 300.727C405.835 300.727 405.835 300.837 405.945 300.837L407.487 301.716C407.598 301.716 407.598 301.716 407.708 301.716L409.25 300.727C409.36 300.727 409.36 300.617 409.25 300.617L407.708 299.738C407.598 299.738 407.598 299.738 407.487 299.738L405.945 300.727Z" fill="#BBDBED"/>
<path d="M414.206 295.121C414.096 295.121 414.096 295.121 413.986 295.121L412.444 296.11C412.334 296.11 412.334 296.22 412.444 296.22L413.986 297.1C414.096 297.1 414.096 297.1 414.206 297.1L415.748 296.11C415.859 296.11 415.859 296 415.748 296L414.206 295.121Z" fill="#BBDBED"/>
<path d="M441.303 308.311L439.43 307.322C439.32 307.322 439.32 307.322 439.21 307.322L438.219 307.871C438.109 307.871 438.109 307.981 438.219 307.981L440.091 308.97C440.201 308.97 440.201 308.97 440.312 308.97L441.303 308.421V308.311Z" fill="#BBDBED"/>
<path d="M410.021 303.145C410.131 303.145 410.131 303.145 410.241 303.145L411.783 302.156C411.893 302.156 411.893 302.046 411.783 302.046L410.241 301.166C410.131 301.166 410.131 301.166 410.021 301.166L408.479 302.156C408.368 302.156 408.368 302.266 408.479 302.266L410.021 303.145Z" fill="#BBDBED"/>
<path d="M428.305 301.057L426.433 300.067C426.323 300.067 426.323 300.067 426.213 300.067L425.221 300.617C425.111 300.617 425.111 300.727 425.221 300.727L427.094 301.716C427.204 301.716 427.204 301.716 427.314 301.716L428.305 301.166C428.416 301.166 428.416 301.057 428.305 301.057Z" fill="#BBDBED"/>
<path d="M438.659 306.772L436.787 305.783C436.677 305.783 436.677 305.783 436.567 305.783L435.575 306.332C435.465 306.332 435.465 306.442 435.575 306.442L437.448 307.432C437.558 307.432 437.558 307.432 437.668 307.432L438.659 306.882C438.659 306.882 438.659 306.882 438.659 306.772Z" fill="#BBDBED"/>
<path d="M425.772 299.628L423.9 298.638C423.79 298.638 423.79 298.638 423.679 298.638L422.688 299.188C422.578 299.188 422.578 299.298 422.688 299.298L424.561 300.287C424.671 300.287 424.671 300.287 424.781 300.287L425.772 299.738C425.772 299.628 425.772 299.628 425.772 299.628Z" fill="#BBDBED"/>
<path d="M430.949 302.485L429.076 301.496C428.966 301.496 428.966 301.496 428.856 301.496L427.865 302.046C427.755 302.046 427.755 302.156 427.865 302.156L429.737 303.145C429.848 303.145 429.848 303.145 429.958 303.145L430.949 302.595C431.059 302.595 431.059 302.595 430.949 302.485Z" fill="#BBDBED"/>
<path d="M436.126 305.453L434.253 304.464C434.143 304.464 434.143 304.464 434.033 304.464L433.042 305.013C432.931 305.013 432.931 305.123 433.042 305.123L434.914 306.113C435.024 306.113 435.024 306.113 435.134 306.113L436.126 305.563C436.126 305.453 436.126 305.453 436.126 305.453Z" fill="#BBDBED"/>
<path d="M433.482 303.914L431.61 302.925C431.5 302.925 431.5 302.925 431.389 302.925L430.398 303.475C430.288 303.475 430.288 303.585 430.398 303.585L432.271 304.574C432.381 304.574 432.381 304.574 432.491 304.574L433.482 304.024C433.592 304.024 433.592 304.024 433.482 303.914Z" fill="#BBDBED"/>
<path d="M422.467 310.18C422.578 310.18 422.578 310.18 422.688 310.18L424.23 309.19C424.34 309.19 424.34 309.08 424.23 309.08L422.688 308.201C422.578 308.201 422.578 308.201 422.467 308.201L420.925 309.19C420.815 309.19 420.815 309.3 420.925 309.3L422.467 310.18Z" fill="#BBDBED"/>
<path d="M440.752 320.292C440.862 320.292 440.862 320.292 440.972 320.292L442.514 319.302C442.625 319.302 442.625 319.192 442.514 319.192L440.972 318.313C440.862 318.313 440.862 318.313 440.752 318.313L439.21 319.302C439.1 319.302 439.1 319.412 439.21 319.412L440.752 320.292Z" fill="#BBDBED"/>
<path d="M443.065 316.994L441.523 317.983C441.413 317.983 441.413 318.093 441.523 318.093L443.065 318.973C443.175 318.973 443.175 318.973 443.285 318.973L444.827 317.983C444.938 317.983 444.938 317.874 444.827 317.874L443.285 316.994C443.175 316.884 443.065 316.884 443.065 316.994Z" fill="#BBDBED"/>
<path d="M451.326 313.917L449.674 313.037C449.564 313.037 449.564 313.037 449.454 313.037L448.462 313.587C448.352 313.587 448.352 313.697 448.462 313.697L450.115 314.576C450.225 314.576 450.225 314.576 450.335 314.576L451.326 314.027C451.326 314.027 451.326 314.027 451.326 313.917Z" fill="#BBDBED"/>
<path d="M436.236 321.061L437.888 321.94C437.998 321.94 437.998 321.94 438.108 321.94L439.981 320.841C440.091 320.841 440.091 320.731 439.981 320.731L438.439 319.852C438.329 319.852 438.329 319.852 438.218 319.852L436.346 320.951C436.236 321.061 436.236 321.061 436.236 321.061Z" fill="#BBDBED"/>
<path d="M445.378 314.686C445.488 314.686 445.488 314.686 445.598 314.686L447.14 313.697C447.251 313.697 447.251 313.587 447.14 313.587L445.598 312.708C445.488 312.708 445.488 312.708 445.378 312.708L443.836 313.697C443.726 313.697 443.726 313.807 443.836 313.807L445.378 314.686Z" fill="#BBDBED"/>
<path d="M445.488 315.455L443.946 316.445C443.836 316.445 443.836 316.555 443.946 316.555L445.488 317.434C445.599 317.434 445.599 317.434 445.709 317.434L447.251 316.445C447.361 316.445 447.361 316.335 447.251 316.335L445.709 315.455C445.599 315.455 445.488 315.455 445.488 315.455Z" fill="#BBDBED"/>
<path d="M438.77 322.49L440.312 323.369C440.422 323.369 440.422 323.369 440.532 323.369L444.938 320.731C445.048 320.731 445.048 320.621 444.938 320.621L443.396 319.742C443.286 319.742 443.286 319.742 443.175 319.742L438.77 322.38V322.49Z" fill="#BBDBED"/>
<path d="M448.022 318.863C448.132 318.863 448.132 318.863 448.242 318.863L449.784 317.874C449.894 317.874 449.894 317.764 449.784 317.764L448.242 316.884C448.132 316.884 448.132 316.884 448.022 316.884L446.48 317.874C446.369 317.874 446.369 317.983 446.48 317.983L448.022 318.863Z" fill="#BBDBED"/>
<path d="M447.801 316.005C447.912 316.005 447.912 316.005 448.022 316.005L449.564 315.016C449.674 315.016 449.674 314.906 449.564 314.906L448.022 314.027C447.912 314.027 447.912 314.027 447.801 314.027L446.259 315.016C446.149 315.016 446.149 315.126 446.259 315.126L447.801 316.005Z" fill="#BBDBED"/>
<path d="M453.86 315.345L452.207 314.466C452.097 314.466 452.097 314.466 451.987 314.466L450.996 315.016C450.886 315.016 450.886 315.126 450.996 315.126L452.648 316.005C452.758 316.005 452.758 316.005 452.868 316.005L453.86 315.455V315.345Z" fill="#BBDBED"/>
<path d="M450.335 317.434C450.445 317.434 450.445 317.434 450.555 317.434L452.097 316.445C452.208 316.445 452.208 316.335 452.097 316.335L450.555 315.455C450.445 315.455 450.445 315.455 450.335 315.455L448.793 316.445C448.683 316.445 448.683 316.555 448.793 316.555L450.335 317.434Z" fill="#BBDBED"/>
<path d="M443.065 314.136L441.523 315.126C441.413 315.126 441.413 315.236 441.523 315.236L443.065 316.115C443.175 316.115 443.175 316.115 443.285 316.115L444.827 315.126C444.938 315.126 444.938 315.016 444.827 315.016L443.285 314.136C443.175 314.026 443.065 314.026 443.065 314.136Z" fill="#BBDBED"/>
<path d="M443.946 319.412L445.488 320.292C445.599 320.292 445.599 320.292 445.709 320.292L447.251 319.302C447.361 319.302 447.361 319.192 447.251 319.192L445.709 318.313C445.599 318.313 445.599 318.313 445.488 318.313L443.946 319.302V319.412Z" fill="#BBDBED"/>
<path d="M431.279 318.313L435.465 320.621C435.575 320.621 435.575 320.621 435.685 320.621L437.558 319.522C437.668 319.522 437.668 319.412 437.558 319.412L433.372 317.104C433.262 317.104 433.262 317.104 433.152 317.104L431.279 318.203V318.313Z" fill="#BBDBED"/>
<path d="M442.955 311.279C442.845 311.279 442.845 311.279 442.735 311.279L441.192 312.268C441.082 312.268 441.082 312.378 441.192 312.378L442.735 313.257C442.845 313.257 442.845 313.257 442.955 313.257L444.497 312.268C444.607 312.268 444.607 312.158 444.497 312.158L442.955 311.279Z" fill="#BBDBED"/>
<path d="M446.259 311.169L444.607 310.18C444.497 310.18 444.497 310.18 444.387 310.18L443.396 310.729C443.285 310.729 443.285 310.839 443.396 310.839L445.048 311.828C445.158 311.828 445.158 311.828 445.268 311.828L446.259 311.279C446.37 311.279 446.37 311.169 446.259 311.169Z" fill="#BBDBED"/>
<path d="M448.903 312.598L447.251 311.608C447.141 311.608 447.141 311.608 447.03 311.608L446.039 312.158C445.929 312.158 445.929 312.268 446.039 312.268L447.691 313.257C447.802 313.257 447.802 313.257 447.912 313.257L448.903 312.708V312.598Z" fill="#BBDBED"/>
<path d="M436.677 317.983L438.219 318.863C438.329 318.863 438.329 318.863 438.439 318.863L439.981 317.874C440.091 317.874 440.091 317.764 439.981 317.764L438.439 316.884C438.329 316.884 438.329 316.884 438.219 316.884L436.677 317.874C436.567 317.983 436.567 317.983 436.677 317.983Z" fill="#BBDBED"/>
<path d="M440.642 314.576L442.184 313.587C442.294 313.587 442.294 313.477 442.184 313.477L440.642 312.598C440.532 312.598 440.532 312.598 440.422 312.598L438.879 313.587C438.769 313.587 438.769 313.697 438.879 313.697L440.422 314.576C440.532 314.686 440.642 314.686 440.642 314.576Z" fill="#BBDBED"/>
<path d="M440.532 315.565L438.99 316.555C438.88 316.555 438.88 316.664 438.99 316.664L440.532 317.544C440.642 317.544 440.642 317.544 440.752 317.544L442.294 316.555C442.404 316.555 442.404 316.445 442.294 316.445L440.752 315.565C440.752 315.565 440.642 315.565 440.532 315.565Z" fill="#BBDBED"/>
<path d="M438.219 316.115L439.761 315.126C439.871 315.126 439.871 315.016 439.761 315.016L438.219 314.136C438.108 314.136 438.108 314.136 437.998 314.136L436.456 315.126C436.346 315.126 436.346 315.236 436.456 315.236L437.998 316.115C438.108 316.115 438.219 316.115 438.219 316.115Z" fill="#BBDBED"/>
<path d="M434.143 316.555L435.685 317.434C435.795 317.434 435.795 317.434 435.906 317.434L437.448 316.445C437.558 316.445 437.558 316.335 437.448 316.335L435.906 315.455C435.795 315.455 435.795 315.455 435.685 315.455L434.143 316.445C434.033 316.555 434.033 316.555 434.143 316.555Z" fill="#BBDBED"/>
<path d="M397.795 296.22L402.531 298.858C402.641 298.858 402.641 298.858 402.751 298.858L404.293 297.869C404.403 297.869 404.403 297.759 404.293 297.759L399.557 295.121C399.447 295.121 399.447 295.121 399.337 295.121L397.795 296.11C397.684 296.11 397.684 296.22 397.795 296.22Z" fill="#BBDBED"/>
<path d="M403.412 299.408L404.954 300.287C405.064 300.287 405.064 300.287 405.175 300.287L406.717 299.298C406.827 299.298 406.827 299.188 406.717 299.188L405.175 298.309C405.064 298.309 405.064 298.309 404.954 298.309L403.412 299.298C403.302 299.298 403.302 299.408 403.412 299.408Z" fill="#BBDBED"/>
<path d="M407.157 293.912L404.293 292.373C404.183 292.373 404.183 292.373 404.073 292.373L402.531 293.363C402.421 293.363 402.421 293.472 402.531 293.472L405.395 295.011C405.505 295.011 405.505 295.011 405.615 295.011L407.157 294.022C407.267 294.022 407.267 293.912 407.157 293.912Z" fill="#BBDBED"/>
<path d="M424.45 308.531L425.992 309.41C426.102 309.41 426.102 309.41 426.213 309.41L427.755 308.421C427.865 308.421 427.865 308.311 427.755 308.311L426.213 307.432C426.102 307.432 426.102 307.432 425.992 307.432L424.45 308.421V308.531Z" fill="#BBDBED"/>
<path d="M409.58 300.067L411.122 300.947C411.232 300.947 411.232 300.947 411.343 300.947L412.885 299.957C412.995 299.957 412.995 299.847 412.885 299.847L411.343 298.968C411.232 298.968 411.232 298.968 411.122 298.968L409.58 299.957C409.47 300.067 409.47 300.067 409.58 300.067Z" fill="#BBDBED"/>
<path d="M409.69 295.231L408.148 294.352C408.038 294.352 408.038 294.352 407.928 294.352L406.386 295.341C406.276 295.341 406.276 295.451 406.386 295.451L407.928 296.33C408.038 296.33 408.038 296.33 408.148 296.33L409.69 295.341C409.69 295.341 409.69 295.341 409.69 295.231Z" fill="#BBDBED"/>
<path d="M430.839 304.354L429.297 303.475C429.187 303.475 429.187 303.475 429.077 303.475L427.424 304.464C427.314 304.464 427.314 304.574 427.424 304.574L428.966 305.453C429.077 305.453 429.077 305.453 429.187 305.453L430.729 304.464C430.839 304.464 430.839 304.464 430.839 304.354Z" fill="#BBDBED"/>
<path d="M433.372 305.783L431.83 304.904C431.72 304.904 431.72 304.904 431.61 304.904L430.068 305.893C429.958 305.893 429.958 306.003 430.068 306.003L431.61 306.882C431.72 306.882 431.72 306.882 431.83 306.882L433.372 305.893C433.372 305.893 433.372 305.893 433.372 305.783Z" fill="#BBDBED"/>
<path d="M435.795 307.212L434.253 306.332C434.143 306.332 434.143 306.332 434.033 306.332L432.491 307.322C432.381 307.322 432.381 307.432 432.491 307.432L434.033 308.311C434.143 308.311 434.143 308.311 434.253 308.311L435.795 307.322C435.905 307.322 435.905 307.212 435.795 307.212Z" fill="#BBDBED"/>
<path d="M416.74 296.44C416.63 296.44 416.63 296.44 416.52 296.44L414.978 297.429C414.867 297.429 414.867 297.539 414.978 297.539L416.52 298.419C416.63 298.419 416.63 298.419 416.74 298.419L418.282 297.429C418.392 297.429 418.392 297.319 418.282 297.319L416.74 296.44Z" fill="#BBDBED"/>
<path d="M438.329 308.641L436.787 307.761C436.677 307.761 436.677 307.761 436.567 307.761L435.025 308.751C434.914 308.751 434.914 308.861 435.025 308.861L436.567 309.74C436.677 309.74 436.677 309.74 436.787 309.74L438.329 308.751V308.641Z" fill="#BBDBED"/>
<path d="M425.772 301.606L424.23 300.727C424.12 300.727 424.12 300.727 424.009 300.727L422.467 301.716C422.357 301.716 422.357 301.826 422.467 301.826L424.009 302.705C424.12 302.705 424.12 302.705 424.23 302.705L425.772 301.716C425.882 301.716 425.882 301.606 425.772 301.606Z" fill="#BBDBED"/>
<path d="M428.305 303.035L426.763 302.156C426.653 302.156 426.653 302.156 426.543 302.156L425.001 303.145C424.891 303.145 424.891 303.255 425.001 303.255L426.543 304.134C426.653 304.134 426.653 304.134 426.763 304.134L428.305 303.145C428.305 303.035 428.305 303.035 428.305 303.035Z" fill="#BBDBED"/>
<path d="M425.882 312.048L427.424 312.927C427.535 312.927 427.535 312.927 427.645 312.927L429.187 311.938C429.297 311.938 429.297 311.828 429.187 311.828L427.645 310.949C427.535 310.949 427.535 310.949 427.424 310.949L425.882 311.938C425.772 311.938 425.772 312.048 425.882 312.048Z" fill="#BBDBED"/>
<path d="M420.595 312.268L423.459 313.917C423.569 313.917 423.569 313.917 423.679 313.917L425.552 312.817C425.662 312.817 425.662 312.708 425.552 312.708L422.688 311.059C422.578 311.059 422.578 311.059 422.468 311.059L420.595 312.158C420.595 312.268 420.595 312.268 420.595 312.268Z" fill="#BBDBED"/>
<path d="M405.505 303.804L419.714 311.828C419.824 311.828 419.824 311.828 419.934 311.828L421.807 310.729C421.917 310.729 421.917 310.619 421.807 310.619L407.598 302.595C407.488 302.595 407.488 302.595 407.377 302.595L405.505 303.695C405.505 303.804 405.505 303.804 405.505 303.804Z" fill="#BBDBED"/>
<path d="M406.717 290.835C406.606 290.835 406.606 290.835 406.496 290.835L404.954 291.824C404.844 291.824 404.844 291.934 404.954 291.934L406.496 292.813C406.606 292.813 406.606 292.813 406.717 292.813L408.259 291.824C408.369 291.824 408.369 291.714 408.259 291.714L406.717 290.835Z" fill="#BBDBED"/>
<path d="M410.131 290.834L408.259 289.845C408.148 289.845 408.148 289.845 408.038 289.845L407.047 290.395C406.937 290.395 406.937 290.505 407.047 290.505L408.919 291.494C409.03 291.494 409.03 291.494 409.14 291.494L410.131 290.944C410.241 290.944 410.241 290.834 410.131 290.834Z" fill="#BBDBED"/>
<path d="M443.836 309.74L441.964 308.751C441.854 308.751 441.854 308.751 441.743 308.751L440.752 309.3C440.642 309.3 440.642 309.41 440.752 309.41L442.625 310.399C442.735 310.399 442.735 310.399 442.845 310.399L443.836 309.85C443.946 309.85 443.946 309.74 443.836 309.74Z" fill="#BBDBED"/>
<path d="M427.424 316.115L430.288 317.764C430.398 317.764 430.398 317.764 430.508 317.764L432.381 316.664C432.491 316.664 432.491 316.555 432.381 316.555L429.517 314.906C429.407 314.906 429.407 314.906 429.297 314.906L427.424 316.005C427.424 316.115 427.424 316.115 427.424 316.115Z" fill="#BBDBED"/>
<path d="M420.485 296.66L418.613 295.671C418.502 295.671 418.502 295.671 418.392 295.671L417.401 296.22C417.291 296.22 417.291 296.33 417.401 296.33L419.273 297.319C419.384 297.319 419.384 297.319 419.494 297.319L420.485 296.77C420.595 296.77 420.595 296.66 420.485 296.66Z" fill="#BBDBED"/>
<path d="M419.163 297.869C419.053 297.869 419.053 297.869 418.943 297.869L417.401 298.858C417.291 298.858 417.291 298.968 417.401 298.968L418.943 299.848C419.053 299.848 419.053 299.848 419.163 299.848L420.705 298.858C420.816 298.858 420.816 298.748 420.705 298.748L419.163 297.869Z" fill="#BBDBED"/>
<path d="M423.129 298.089L421.256 297.1C421.146 297.1 421.146 297.1 421.036 297.1L420.045 297.649C419.934 297.649 419.934 297.759 420.045 297.759L421.917 298.748C422.027 298.748 422.027 298.748 422.137 298.748L423.129 298.199C423.239 298.199 423.239 298.199 423.129 298.089Z" fill="#BBDBED"/>
<path d="M411.783 293.692C411.673 293.692 411.673 293.692 411.563 293.692L410.021 294.682C409.911 294.682 409.911 294.791 410.021 294.791L411.563 295.671C411.673 295.671 411.673 295.671 411.783 295.671L413.326 294.682C413.436 294.682 413.436 294.572 413.326 294.572L411.783 293.692Z" fill="#BBDBED"/>
<path d="M421.697 299.298C421.586 299.298 421.586 299.298 421.476 299.298L419.934 300.287C419.824 300.287 419.824 300.397 419.934 300.397L421.476 301.276C421.586 301.276 421.586 301.276 421.697 301.276L423.239 300.287C423.349 300.287 423.349 300.177 423.239 300.177L421.697 299.298Z" fill="#BBDBED"/>
<path d="M417.951 295.231L416.079 294.242C415.969 294.242 415.969 294.242 415.859 294.242L414.867 294.791C414.757 294.791 414.757 294.901 414.867 294.901L416.74 295.891C416.85 295.891 416.85 295.891 416.96 295.891L417.951 295.341C418.062 295.341 418.062 295.231 417.951 295.231Z" fill="#BBDBED"/>
<path d="M428.416 313.477L433.152 316.115C433.262 316.115 433.262 316.115 433.372 316.115L434.914 315.126C435.024 315.126 435.024 315.016 434.914 315.016L430.178 312.378C430.068 312.378 430.068 312.378 429.958 312.378L428.416 313.367C428.305 313.367 428.305 313.477 428.416 313.477Z" fill="#BBDBED"/>
<path d="M413.766 299.628L415.308 300.507C415.418 300.507 415.418 300.507 415.528 300.507L417.071 299.518C417.181 299.518 417.181 299.408 417.071 299.408L415.528 298.529C415.418 298.529 415.418 298.529 415.308 298.529L413.766 299.518C413.766 299.628 413.766 299.628 413.766 299.628Z" fill="#BBDBED"/>
<path d="M414.647 298.199C414.757 298.199 414.757 298.089 414.647 298.089L413.105 297.21C412.995 297.21 412.995 297.21 412.885 297.21L411.343 298.199C411.233 298.199 411.233 298.309 411.343 298.309L412.885 299.188C412.995 299.188 412.995 299.188 413.105 299.188L414.647 298.199Z" fill="#BBDBED"/>
<path d="M434.694 309.3L433.152 308.421C433.042 308.421 433.042 308.421 432.932 308.421L431.39 309.41C431.28 309.41 431.28 309.52 431.39 309.52L432.932 310.399C433.042 310.399 433.042 310.399 433.152 310.399L434.694 309.41C434.694 309.41 434.694 309.41 434.694 309.3Z" fill="#BBDBED"/>
<path d="M415.969 306.442L417.511 307.322C417.621 307.322 417.621 307.322 417.731 307.322L419.273 306.332C419.383 306.332 419.383 306.223 419.273 306.223L417.731 305.343C417.621 305.343 417.621 305.343 417.511 305.343L415.969 306.332C415.859 306.332 415.859 306.442 415.969 306.442Z" fill="#BBDBED"/>
<path d="M426.984 309.96L428.526 310.839C428.636 310.839 428.636 310.839 428.746 310.839L430.288 309.85C430.398 309.85 430.398 309.74 430.288 309.74L428.746 308.861C428.636 308.861 428.636 308.861 428.526 308.861L426.984 309.85C426.984 309.85 426.984 309.85 426.984 309.96Z" fill="#BBDBED"/>
<path d="M429.517 311.389L431.059 312.268C431.169 312.268 431.169 312.268 431.279 312.268L432.821 311.279C432.932 311.279 432.932 311.169 432.821 311.169L431.279 310.289C431.169 310.289 431.169 310.289 431.059 310.289L429.517 311.279C429.517 311.279 429.517 311.279 429.517 311.389Z" fill="#BBDBED"/>
<path d="M437.117 310.729L435.575 309.85C435.465 309.85 435.465 309.85 435.355 309.85L433.813 310.839C433.702 310.839 433.702 310.949 433.813 310.949L435.355 311.828C435.465 311.828 435.465 311.828 435.575 311.828L437.117 310.839C437.227 310.839 437.227 310.729 437.117 310.729Z" fill="#BBDBED"/>
<path d="M412.224 296.66L410.682 295.781C410.572 295.781 410.572 295.781 410.462 295.781L408.92 296.77C408.809 296.77 408.809 296.88 408.92 296.88L410.462 297.759C410.572 297.759 410.572 297.759 410.682 297.759L412.224 296.77C412.224 296.77 412.224 296.77 412.224 296.66Z" fill="#BBDBED"/>
<path d="M407.047 298.748L408.589 299.628C408.699 299.628 408.699 299.628 408.809 299.628L410.351 298.638C410.462 298.638 410.462 298.529 410.351 298.529L408.809 297.649C408.699 297.649 408.699 297.649 408.589 297.649L407.047 298.638C406.937 298.638 406.937 298.638 407.047 298.748Z" fill="#BBDBED"/>
<path d="M410.902 303.585L412.444 304.464C412.554 304.464 412.554 304.464 412.664 304.464L414.206 303.475C414.317 303.475 414.317 303.365 414.206 303.365L412.664 302.485C412.554 302.485 412.554 302.485 412.444 302.485L410.902 303.475C410.792 303.585 410.792 303.585 410.902 303.585Z" fill="#BBDBED"/>
<path d="M400.107 294.791L403.632 296.77C403.742 296.77 403.742 296.77 403.852 296.77L405.395 295.781C405.505 295.781 405.505 295.671 405.395 295.671L401.87 293.692C401.76 293.692 401.76 293.692 401.65 293.692L400.107 294.682C400.107 294.682 400.107 294.791 400.107 294.791Z" fill="#BBDBED"/>
<path d="M413.436 305.014L414.978 305.893C415.088 305.893 415.088 305.893 415.198 305.893L416.74 304.904C416.85 304.904 416.85 304.794 416.74 304.794L415.198 303.914C415.088 303.914 415.088 303.914 414.978 303.914L413.436 304.904C413.325 304.904 413.325 305.014 413.436 305.014Z" fill="#BBDBED"/>
<path d="M404.514 297.319L406.056 298.199C406.166 298.199 406.166 298.199 406.276 298.199L407.818 297.21C407.928 297.21 407.928 297.1 407.818 297.1L406.276 296.22C406.166 296.22 406.166 296.22 406.056 296.22L404.514 297.21C404.404 297.21 404.404 297.21 404.514 297.319Z" fill="#BBDBED"/>
<path d="M428.746 308.091L430.288 308.97C430.398 308.97 430.398 308.97 430.508 308.97L432.051 307.981C432.161 307.981 432.161 307.871 432.051 307.871L430.508 306.992C430.398 306.992 430.398 306.992 430.288 306.992L428.746 307.981V308.091Z" fill="#BBDBED"/>
<path d="M414.537 302.925L416.079 303.804C416.189 303.804 416.189 303.804 416.3 303.804L417.842 302.815C417.952 302.815 417.952 302.705 417.842 302.705L416.3 301.826C416.189 301.826 416.189 301.826 416.079 301.826L414.537 302.815C414.427 302.815 414.427 302.815 414.537 302.925Z" fill="#BBDBED"/>
<path d="M419.494 305.673L421.036 306.552C421.146 306.552 421.146 306.552 421.256 306.552L422.798 305.563C422.908 305.563 422.908 305.453 422.798 305.453L421.256 304.574C421.146 304.574 421.146 304.574 421.036 304.574L419.494 305.563C419.494 305.673 419.494 305.673 419.494 305.673Z" fill="#BBDBED"/>
<path d="M417.07 304.354L418.612 305.233C418.723 305.233 418.723 305.233 418.833 305.233L420.375 304.244C420.485 304.244 420.485 304.134 420.375 304.134L418.833 303.255C418.723 303.255 418.723 303.255 418.612 303.255L417.07 304.244C416.96 304.244 416.96 304.244 417.07 304.354Z" fill="#BBDBED"/>
<path d="M422.027 307.102L423.569 307.981C423.679 307.981 423.679 307.981 423.789 307.981L425.331 306.992C425.442 306.992 425.442 306.882 425.331 306.882L423.789 306.003C423.679 306.003 423.679 306.003 423.569 306.003L422.027 306.992C421.917 306.992 422.027 307.102 422.027 307.102Z" fill="#BBDBED"/>
<path d="M435.465 314.686C435.575 314.686 435.575 314.686 435.686 314.686L437.228 313.697C437.338 313.697 437.338 313.587 437.228 313.587L433.703 311.608C433.593 311.608 433.593 311.608 433.483 311.608L431.941 312.598C431.83 312.598 431.83 312.708 431.941 312.708L435.465 314.686Z" fill="#BBDBED"/>
<path d="M437.888 313.147C437.998 313.147 437.998 313.147 438.108 313.147L439.651 312.158C439.761 312.158 439.761 312.048 439.651 312.048L438.108 311.169C437.998 311.169 437.998 311.169 437.888 311.169L436.236 312.158C436.126 312.158 436.126 312.268 436.236 312.268L437.888 313.147Z" fill="#BBDBED"/>
<path d="M422.137 302.266L420.595 301.386C420.485 301.386 420.485 301.386 420.375 301.386L418.833 302.376C418.722 302.376 418.722 302.485 418.833 302.485L420.375 303.365C420.485 303.365 420.485 303.365 420.595 303.365L422.137 302.376C422.247 302.376 422.247 302.376 422.137 302.266Z" fill="#BBDBED"/>
<path d="M424.671 303.695L423.129 302.815C423.019 302.815 423.019 302.815 422.908 302.815L421.366 303.804C421.256 303.804 421.256 303.914 421.366 303.914L422.908 304.794C423.019 304.794 423.019 304.794 423.129 304.794L424.671 303.804C424.781 303.804 424.781 303.804 424.671 303.695Z" fill="#BBDBED"/>
<path d="M412.003 301.496L413.545 302.376C413.656 302.376 413.656 302.376 413.766 302.376L415.308 301.386C415.418 301.386 415.418 301.276 415.308 301.276L413.766 300.397C413.656 300.397 413.656 300.397 413.545 300.397L412.003 301.386V301.496Z" fill="#BBDBED"/>
<path d="M419.604 300.947L418.062 300.067C417.952 300.067 417.952 300.067 417.841 300.067L416.299 301.057C416.189 301.057 416.189 301.166 416.299 301.166L417.841 302.046C417.952 302.046 417.952 302.046 418.062 302.046L419.604 301.057C419.714 300.947 419.714 300.947 419.604 300.947Z" fill="#BBDBED"/>
<path d="M427.204 305.123L425.662 304.244C425.552 304.244 425.552 304.244 425.442 304.244L423.9 305.233C423.789 305.233 423.789 305.343 423.9 305.343L425.442 306.223C425.552 306.223 425.552 306.223 425.662 306.223L427.204 305.233V305.123Z" fill="#BBDBED"/>
<path d="M442.074 310.729L439.1 309.08C438.99 309.08 438.99 309.08 438.88 309.08L437.337 309.96C437.227 309.96 437.227 310.07 437.337 310.07L440.311 311.718C440.422 311.718 440.422 311.718 440.532 311.718L442.074 310.729C442.184 310.839 442.184 310.839 442.074 310.729Z" fill="#BBDBED"/>
<path d="M426.323 306.662L427.865 307.542C427.975 307.542 427.975 307.542 428.085 307.542L429.627 306.552C429.737 306.552 429.737 306.442 429.627 306.442L428.085 305.563C427.975 305.563 427.975 305.563 427.865 305.563L426.323 306.552C426.213 306.552 426.213 306.662 426.323 306.662Z" fill="#BBDBED"/>
<path d="M454.521 321.391L452.758 322.27V323.149L454.521 322.27V321.391Z" fill="#133677"/>
<path d="M455.292 320.841V321.83L456.834 321.061V320.072L455.292 320.841Z" fill="#133677"/>
<path d="M417.07 328.975V329.415L424.671 333.811V333.262L417.07 328.975Z" fill="#133677"/>
<path d="M381.823 308.421V308.751L389.423 313.147V312.708L381.823 308.421Z" fill="#133677"/>
<path d="M461.02 294.791L464.765 277.865L438.439 263.246L434.694 280.173L461.02 294.791Z" fill="#4A8DBD"/>
<path d="M457.935 309.63L460.799 296.11L442.404 285.888L439.541 299.408L457.935 309.63Z" fill="#49F6CC"/>
<path d="M433.923 272.149L436.236 261.927L418.392 252.144L416.189 262.257L433.923 272.149Z" fill="#49F6CC"/>
<path d="M429.077 293.582L433.373 274.677L415.529 264.785L411.233 283.69L429.077 293.582Z" fill="#08194B"/>
<path d="M440.422 285.009L434.253 281.492L432.381 290.175L438.659 293.582L440.422 285.009Z" fill="#C4ECF5"/>
<path d="M438.329 294.681L432.161 291.164L431.39 294.681L437.558 298.089L438.329 294.681Z" fill="#244B8E"/>
<path d="M271.015 379.646C270.794 379.755 265.287 380.635 265.287 384.482C265.287 388.219 265.618 397.782 265.618 397.782C265.618 397.782 267.49 403.057 280.267 397.452C293.044 391.846 287.757 397.891 298.001 393.495C308.245 389.098 307.584 387.23 306.152 384.482C304.72 381.734 293.705 383.932 290.621 383.053C287.537 382.174 276.412 377.118 271.015 379.646Z" fill="#1E83FF"/>
<path d="M275.971 382.393C275.971 382.393 275.311 384.372 271.786 384.372C268.371 384.372 268.041 382.393 268.041 382.393L267.38 368.544H276.522L275.971 382.393Z" fill="#FFB0C1"/>
<path d="M308.685 396.682C308.685 396.682 303.398 396.902 302.958 400.31C302.517 403.607 302.187 413.609 302.187 413.609C302.187 413.609 300.865 418.336 307.804 418.995C314.633 419.655 316.285 417.017 321.793 416.687C327.41 416.357 342.611 417.566 345.915 415.698C349.22 413.829 351.092 408.004 339.637 406.465C332.257 405.476 322.233 400.859 322.233 400.859C322.233 400.859 312.21 395.913 308.685 396.682Z" fill="#1E83FF"/>
<path d="M312.981 399.65C312.981 399.65 312.541 401.738 309.016 401.738C305.601 401.738 305.051 399.65 305.051 399.65L302.848 385.361H311.99L312.981 399.65Z" fill="#FFB0C1"/>
<path d="M273.218 233.239C273.218 233.239 258.899 243.351 260.11 262.367C260.661 270.94 263.855 275.117 266.168 279.843C270.134 288.087 272.557 294.681 272.667 311.718C262.423 329.634 266.609 375.029 266.609 375.029C266.609 375.029 268.261 377.118 272.337 376.348C276.412 375.579 278.064 373.38 278.064 373.38C278.064 373.38 281.589 339.856 290.401 319.192C294.036 293.472 288.749 251.925 288.749 251.925L273.218 233.239Z" fill="#265B9C"/>
<path d="M300.645 260.718L298.442 267.423C298.442 267.423 310.228 290.065 312.541 326.007C310.338 340.736 314.523 393.385 314.523 393.385C314.523 393.385 304.83 395.693 302.627 394.154C301.746 377.118 285.995 345.682 293.595 334.69C287.868 322.71 274.429 286.438 274.429 286.438C274.429 286.438 259.89 278.414 260 260.718C260.11 244.78 273.328 236.427 273.328 236.427L300.645 260.718Z" fill="#4A8DBD"/>
<path d="M395.041 237.526L399.557 242.472C399.888 242.912 400.108 243.461 399.888 244.011L399.668 245C399.447 245.66 399.007 246.099 398.236 246.209L393.609 246.869C393.609 246.869 393.169 244.56 395.592 244.011L394.381 243.351C391.847 242.802 391.407 243.461 388.543 241.593C385.679 239.724 395.041 237.526 395.041 237.526Z" fill="url(#paint0_linear_450_3713)"/>
<path d="M386.45 235.108L383.255 241.373L385.899 243.241L388.432 245.66L395.922 249.836C395.922 249.836 397.685 248.188 395.812 246.429C393.94 244.67 390.745 244.011 391.296 242.582C391.957 240.713 395.812 241.922 395.812 241.922L402.421 245C402.421 245 408.259 248.188 410.242 245.33C407.708 244.45 402.862 241.812 402.862 241.812L394.931 237.416L388.873 235.877L386.45 235.108Z" fill="#FFB0C1"/>
<path d="M388.322 235.108L384.247 242.582L343.272 227.414L313.312 196.088C313.312 196.088 305.932 187.405 311.88 181.249C317.828 175.094 323.776 180.04 323.776 180.04L351.313 216.422L388.322 235.108Z" fill="#244B8E"/>
<path d="M314.523 197.297L321.463 204.551C325.428 195.758 323.445 186.196 323.445 186.196L314.523 197.297Z" fill="#091946"/>
<path d="M319.039 175.864C323.886 179.051 323.555 189.493 322.123 195.758C320.692 202.023 320.141 205.431 322.123 210.267C324.106 214.993 319.921 224.996 316.065 229.062C312.21 233.129 309.897 233.899 304.83 234.228C302.297 244.231 303.068 255.991 300.865 260.388C298.662 264.785 286.105 261.377 279.496 255.112C272.887 248.847 270.684 239.175 272.006 234.888C273.328 230.601 280.377 235.767 282.47 206.42C283.131 196.967 289.63 191.252 294.256 186.415C303.839 176.083 315.294 173.445 319.039 175.864Z" fill="#1A3474"/>
<path d="M303.839 182.459C303.839 182.459 296.679 191.362 297.34 194.549C298.001 197.737 313.201 210.597 315.514 215.323C318.598 214.444 318.819 195.758 318.048 192.571C317.387 189.383 312.43 173.116 303.839 182.459Z" fill="#091946"/>
<path d="M305.161 183.997C305.161 183.997 298.882 191.801 299.433 194.549C300.094 197.297 313.752 208.508 315.405 212.795C317.497 210.707 318.268 195.538 317.608 192.79C317.057 190.153 312.761 175.864 305.161 183.997Z" fill="url(#paint1_linear_450_3713)"/>
<path d="M324.547 189.493L315.184 196.198C313.422 197.517 310.999 197.847 308.906 197.077C307.474 196.528 306.042 195.319 305.711 192.9C304.83 187.185 308.685 185.206 308.685 185.206L318.709 178.941L328.071 186.086L324.547 189.493Z" fill="url(#paint2_linear_450_3713)"/>
<path d="M340.739 162.674C340.739 162.674 343.602 165.532 343.713 169.049C343.823 172.566 342.281 176.523 342.281 176.523C342.281 176.523 340.298 179.601 340.298 182.129C340.298 184.767 337.765 191.471 334.901 192.571C331.927 193.56 322.785 192.131 322.234 185.536C321.683 178.941 327.08 168.829 327.08 168.829L340.739 162.674Z" fill="#FFB0C1"/>
<path d="M333.028 154.1C342.831 152.012 349 165.971 344.373 170.148C342.611 171.797 336.883 169.269 336.443 170.588C336.002 171.907 334.57 177.622 333.579 178.282C332.588 178.941 329.724 178.282 327.741 179.821C325.758 181.359 325.648 182.459 323.445 182.239C321.242 182.019 315.404 186.196 307.254 180.92C302.848 178.062 299.874 170.148 305.161 159.486C310.448 148.934 324.326 145.967 333.028 154.1Z" fill="#FFE04F"/>
<path d="M322.454 181.689L322.674 184.657C322.674 184.657 322.784 186.086 322.013 186.086C321.242 186.196 317.938 183.997 317.497 181.909C317.057 179.821 318.709 178.831 319.59 178.831C321.022 178.831 322.123 179.821 322.454 181.689Z" fill="#FFB0C1"/>
<path d="M339.857 179.051C339.857 179.051 341.289 183.228 342.06 184.547C342.831 185.976 339.196 186.306 338.205 186.196C337.324 186.196 338.756 178.941 339.857 179.051Z" fill="url(#paint3_linear_450_3713)"/>
<path d="M303.068 211.146C307.584 219.28 311.66 222.687 312.431 228.183C313.202 233.679 308.796 234.009 308.796 234.009L299.433 226.095C299.433 226.095 298.552 203.013 303.068 211.146Z" fill="#091946"/>
<path d="M303.729 227.743C303.729 227.743 283.682 205.321 282.801 210.377C281.92 215.433 285.555 225.215 288.418 232.25C290.842 238.185 288.418 255.112 287.537 260.278C293.375 262.806 299.323 263.246 300.755 260.388C302.958 255.991 302.187 244.231 304.72 234.228C305.712 234.118 306.593 234.118 307.474 234.009L303.729 227.743Z" fill="#091946"/>
<path d="M333.799 294.572C333.799 294.572 337.434 299.298 340.078 299.518C342.831 299.847 351.974 297.1 351.974 297.1L355.939 294.791C355.939 294.791 358.583 294.791 358.913 293.362L355.278 293.253L352.304 294.462C352.084 293.802 356.049 292.263 356.049 292.263C356.049 292.263 360.014 292.373 360.014 291.164C358.583 291.164 355.829 290.834 355.829 290.834L351.313 292.593C350.982 291.934 355.388 289.625 355.388 289.625C355.388 289.625 359.684 290.395 359.794 288.526C358.583 288.526 354.727 288.197 354.727 288.197L349.22 290.065C348.89 289.515 353.075 287.647 353.075 287.647C353.075 287.647 357.481 288.087 357.261 286.658C355.278 286.548 352.635 286.108 352.635 286.108L347.458 288.087C347.458 288.087 343.052 290.175 342.281 289.296C341.51 288.416 345.034 286.987 345.034 286.987C345.034 286.987 347.347 287.867 348.559 285.998C347.347 285.998 345.034 285.339 344.263 285.119C344.153 285.119 343.933 285.119 343.823 285.119L340.628 286.658C339.968 286.987 339.417 287.537 339.086 288.197L337.324 291.714L333.799 294.572Z" fill="#FFB0C1"/>
<path d="M288.418 202.683C284.123 204.441 280.708 209.058 284.453 217.192C288.308 225.325 300.535 251.815 306.483 261.048C312.431 270.17 333.249 296.11 333.249 296.11C333.249 296.11 336.553 297.429 338.426 294.901C340.188 292.483 338.756 289.735 338.756 289.735L316.616 253.354C316.616 253.354 305.051 216.642 302.297 208.948C299.543 201.144 292.714 200.814 288.418 202.683Z" fill="#244B8E"/>
<path d="M381.713 433.174L390.635 431.306L394.16 431.635C394.16 431.635 403.192 428.008 406.607 428.448C409.691 428.887 410.021 430.536 410.131 433.504C405.505 439.989 401.099 440.758 396.693 444.275C393.059 447.243 392.398 449.112 389.314 450.541C382.484 453.618 380.392 449.441 380.392 449.441C380.392 449.441 376.867 434.273 381.713 433.174Z" fill="#6A24FF"/>
<path d="M409.03 445.265V454.058C409.03 454.058 410.131 456.256 414.317 456.036C418.392 455.817 418.613 453.179 418.613 453.179V442.517L409.03 445.265Z" fill="#FFB0C1"/>
<path d="M381.713 425.7V434.493C381.713 434.493 382.815 436.691 387 436.472C391.076 436.252 391.296 433.614 391.296 433.614V422.952L381.713 425.7Z" fill="#FFB0C1"/>
<path d="M395.372 400.419L297.561 404.486L315.515 467.138C315.515 467.577 315.625 468.017 315.845 468.347C316.065 468.786 316.396 469.226 316.947 469.556L341.069 483.845C343.823 485.494 347.127 485.384 349.771 483.735L376.096 467.248C376.757 466.808 377.197 466.258 377.307 465.599H377.418L395.372 400.419Z" fill="url(#paint4_linear_450_3713)"/>
<path d="M299.873 399.76L343.822 375.029C347.898 372.721 352.965 372.721 357.04 375.139L393.169 396.243C396.143 398.001 396.143 402.178 393.279 403.937L351.753 429.877C347.567 432.515 342.17 432.625 337.874 430.096L299.763 407.564C296.789 405.805 296.789 401.409 299.873 399.76Z" fill="#49F6CC"/>
<path d="M330.715 406.135C330.715 406.135 315.184 406.135 315.184 386.131C315.184 370.413 326.529 366.016 326.529 366.016C326.529 366.016 376.096 357.992 380.612 359.421C385.128 360.96 387 366.566 386.67 379.316C386.34 389.868 392.398 422.512 392.067 426.249C391.737 429.987 385.128 431.745 381.052 429.217C377.748 408.883 360.675 401.189 367.504 384.042C357.811 397.122 330.715 406.135 330.715 406.135Z" fill="#091946"/>
<path d="M356.269 427.019V479.668L376.206 467.248C376.867 466.808 377.307 466.258 377.417 465.599H377.528L395.482 400.31L356.269 427.019Z" fill="url(#paint5_linear_450_3713)"/>
<path d="M393.169 396.243L357.04 375.139C356.82 375.029 356.489 374.809 356.269 374.699V427.129L393.279 403.937C396.143 402.068 396.143 397.891 393.169 396.243Z" fill="#4CE5B9"/>
<g opacity="0.2">
<path opacity="0.2" d="M380.502 405.036C380.392 404.706 380.282 404.376 379.951 404.157C374.444 398.881 366.072 396.243 358.913 394.264C358.142 394.044 357.371 393.825 356.71 393.715C345.144 401.299 330.825 406.135 330.825 406.135C330.825 406.135 319.039 406.135 315.955 392.945C315.735 393.055 315.515 393.165 315.184 393.275C311.329 395.034 307.474 399.54 310.778 403.607C314.964 408.883 323.445 409.213 328.953 412.07C335.231 415.368 341.179 417.566 348.449 417.566C356.6 417.676 364.53 415.368 372.131 412.51C374.774 411.411 383.145 409.762 380.502 405.036C380.612 405.036 380.502 405.036 380.502 405.036Z" fill="#414042"/>
</g>
<path d="M330.274 375.029C319.92 379.206 315.735 409.103 341.95 412.95C368.496 416.797 401.87 392.286 401.87 392.286C401.87 392.286 397.685 400.749 400.769 414.708C402.862 423.941 407.488 438.01 407.818 445.594C413.546 449.441 419.384 445.704 419.384 445.704C419.384 445.704 421.366 400.2 422.468 386.57C423.79 370.193 416.41 367.995 404.954 369.094C395.261 369.973 354.176 374.699 354.176 374.699C354.176 374.699 342.17 370.303 330.274 375.029Z" fill="#1A3474"/>
<path d="M397.354 296.99L403.743 296.44C403.853 296.44 410.242 298.089 410.242 298.089C410.242 298.089 409.911 299.408 408.149 299.298C407.158 299.188 402.752 298.638 402.752 298.638L394.931 299.518L397.354 296.99Z" fill="url(#paint6_linear_450_3713)"/>
<path d="M407.488 297.869L398.015 298.199L398.456 300.397L406.827 300.177C406.827 300.177 411.013 301.276 412.114 301.386C413.216 301.496 413.876 299.957 413.876 299.957C413.876 299.957 407.598 297.869 407.488 297.869Z" fill="url(#paint7_linear_450_3713)"/>
<path d="M392.949 310.619C392.949 310.619 398.897 311.828 399.117 311.828C399.337 311.828 402.752 311.059 402.752 311.059L406.166 308.641C406.166 308.641 405.505 306.113 402.311 308.421L399.668 308.86C398.676 308.86 398.346 307.871 398.676 307.102C399.007 306.223 401.099 305.783 401.099 305.783L406.166 305.233C406.166 305.233 410.352 305.893 412.555 306.113C414.758 306.332 414.868 304.794 414.868 304.794L407.378 302.925L402.531 302.595L407.708 301.936C407.708 301.936 411.233 303.145 413.106 303.145C415.088 303.145 415.419 301.716 415.419 301.716L408.92 299.847C408.92 299.847 401.32 299.738 400.549 299.738C399.888 299.738 400.549 298.858 399.007 298.528C398.015 298.419 397.905 297.869 396.694 297.869C396.033 297.869 393.609 299.298 392.067 300.177C391.627 300.397 388.212 303.914 388.102 303.914C387.992 303.914 385.458 304.904 385.458 304.904C385.458 304.904 387.111 311.389 387.111 311.608C387.221 311.608 392.949 310.619 392.949 310.619Z" fill="#FFB0C1"/>
<path d="M337.214 296.661C340.738 298.09 356.049 315.126 356.049 315.126L388.212 303.805L389.754 310.84C389.754 310.84 356.6 330.405 350.321 327.657C344.043 324.799 325.318 317.654 323.225 309.85C322.124 305.564 321.463 302.376 325.098 298.639C328.622 294.792 334.019 295.342 337.214 296.661Z" fill="#FFB0C1"/>
<path d="M344.593 319.083C346.796 315.895 348.559 312.378 350.431 308.86C345.695 303.804 339.417 297.429 337.214 296.55C334.019 295.231 328.622 294.681 324.987 298.419C321.352 302.156 322.123 305.453 323.115 309.63C324.436 314.906 333.689 319.962 341.289 323.479C342.501 322.16 343.492 320.621 344.593 319.083Z" fill="#E1F5FA"/>
<path d="M377.528 318.643L352.634 300.397C352.304 300.177 352.083 300.067 351.753 299.957C348.889 298.968 334.57 293.912 329.834 296.77C323.665 300.397 323.335 305.233 323.886 311.498C324.436 317.764 327.3 333.152 327.19 338.428C327.08 343.703 322.233 368.764 322.233 368.764C322.233 368.764 322.674 376.788 341.289 382.723C359.904 388.659 365.742 376.458 365.742 376.458L367.064 353.376C367.064 353.376 375.545 348.65 375.214 343.154C374.884 337.658 372.02 331.833 372.571 328.425C373.011 324.798 377.528 321.281 377.528 318.643Z" fill="#C4ECF5"/>
<path d="M372.461 328.205C372.791 326.337 374.113 324.578 375.435 322.82C369.707 323.809 363.869 325.458 363.319 331.613C363.429 335.9 357.701 354.035 357.811 382.833C363.319 381.844 365.521 376.238 365.521 376.238L366.843 353.156C366.843 353.156 375.325 348.43 374.994 342.934C374.774 337.328 371.91 331.613 372.461 328.205Z" fill="#98D9E7"/>
<path d="M433.483 308.641C433.483 308.641 430.068 307.432 428.857 306.552C427.755 307.541 429.848 310.509 432.271 311.718C434.584 312.927 433.483 308.641 433.483 308.641Z" fill="url(#paint8_linear_450_3713)"/>
<path d="M436.898 311.389C436.898 311.389 433.483 310.179 432.271 309.3C431.17 310.289 433.263 313.257 435.686 314.466C437.999 315.675 436.898 311.389 436.898 311.389Z" fill="url(#paint9_linear_450_3713)"/>
<path d="M437.448 316.664C437.889 316.225 438.329 315.785 438.66 315.345C438.66 314.466 438.439 313.477 438.439 313.477C438.439 313.477 435.025 312.268 433.813 311.389C432.712 312.378 434.805 315.345 437.228 316.555C437.228 316.664 437.338 316.664 437.448 316.664Z" fill="url(#paint10_linear_450_3713)"/>
<path d="M420.045 312.488C420.045 312.488 421.367 308.97 422.578 307.871C423.68 306.772 429.077 307.761 429.077 307.761C429.077 307.761 429.628 309.19 427.865 309.85C426.874 310.289 424.781 310.07 424.781 310.07L424.01 312.817L420.045 312.488Z" fill="url(#paint11_linear_450_3713)"/>
<path d="M428.967 304.794L425.663 302.925C425.663 302.925 424.01 302.156 423.68 301.936C423.129 302.376 423.46 304.024 424.671 304.354C425.442 305.233 426.874 306.442 426.984 306.442C426.874 307.761 427.866 309.63 428.416 310.509C429.848 312.707 431.06 309.52 430.84 308.311C430.619 307.102 428.967 304.794 428.967 304.794Z" fill="url(#paint12_linear_450_3713)"/>
<path d="M424.781 328.206L427.535 324.578L433.703 320.731L438.109 316.664C438.109 316.664 439.431 314.686 438.99 313.917C438.33 312.927 437.558 313.807 437.228 313.367C436.898 312.927 437.338 312.158 437.008 311.389C436.677 310.729 435.025 311.498 434.474 311.059C434.034 310.619 434.474 309.41 433.703 308.751C432.932 308.091 431.941 309.3 431.17 308.751C430.399 308.201 430.729 307.871 429.518 307.322C428.306 306.772 425.222 311.828 423.46 311.718C423.239 311.718 421.367 310.509 420.265 311.828C419.164 313.257 421.036 318.203 421.146 318.863C421.257 319.522 419.274 324.029 419.274 324.029L424.781 328.206Z" fill="#FFB0C1"/>
<path d="M421.257 319.852C420.486 323.919 400.329 342.055 400.329 342.055C400.329 342.055 396.363 338.318 391.847 333.921C387.001 337.988 381.604 341.505 376.867 345.792C381.714 349.969 386.891 354.145 390.305 356.563C397.685 361.729 402.201 362.279 407.158 357.553C412.004 352.826 425.442 327.436 425.442 327.436C425.442 327.436 422.028 315.675 421.257 319.852Z" fill="#FFB0C1"/>
<path d="M380.722 349.089C390.195 346.451 391.517 340.516 394.931 336.889C394.931 336.889 382.374 323.479 379.29 320.402C374.224 315.455 367.504 319.192 367.504 319.192C359.133 324.908 362.768 333.371 362.768 333.371C362.768 333.371 371.029 345.352 380.722 349.089Z" fill="#E1F5FA"/>
<path d="M400.218 342.055L406.166 346.341C406.166 346.341 414.978 334.031 412.555 333.042C410.132 332.052 400.218 342.055 400.218 342.055Z" fill="url(#paint13_linear_450_3713)"/>
<path d="M401.87 392.286C405.285 390.197 410.352 386.9 411.894 386.021C411.894 386.021 409.801 415.917 404.073 416.357C398.456 416.797 398.786 398.441 401.87 392.286Z" fill="#091946"/>
<path d="M446.701 453.398C441.083 451.97 431.721 453.069 431.721 453.069C431.721 453.069 421.036 446.804 419.164 447.353C417.291 447.903 419.825 453.618 417.401 455.157C416.63 455.597 409.581 457.026 408.92 452.739C407.819 453.398 407.047 454.388 406.827 455.707C406.166 459.554 405.175 466.588 406.056 467.907C407.268 469.666 410.352 470.655 414.207 470.106C418.062 469.556 426.544 467.248 426.544 467.248L452.098 462.631C452.208 462.631 453.42 455.157 446.701 453.398Z" fill="#6A24FF"/>
<path d="M408.92 452.959V452.849C408.92 452.849 408.81 452.849 408.81 452.959C408.92 452.959 408.92 452.959 408.92 452.959Z" fill="white"/>
<path d="M374.774 300.067C374.774 300.067 365.632 297.759 363.649 298.858C361.666 299.957 360.895 303.145 359.353 307.651C357.811 312.268 344.593 308.86 346.796 301.716C348.008 297.759 349.33 293.582 350.651 290.725L365.521 284.459L376.206 296.66L374.774 300.067Z" fill="url(#paint14_linear_450_3713)"/>
<path d="M346.906 301.606C346.906 301.716 346.906 301.716 346.796 301.826C344.593 308.861 357.811 312.268 359.353 307.761C359.353 307.651 359.463 307.542 359.463 307.432C354.727 307.102 350.541 305.013 346.906 301.606Z" fill="#E1F5FA"/>
<path d="M381.383 270.5C381.383 270.5 383.916 278.524 383.916 280.283C383.916 282.041 380.501 288.966 380.501 288.966C380.501 288.966 381.493 290.285 381.052 291.824C380.722 293.362 377.968 299.188 375.985 300.067C374.003 300.947 367.284 297.539 365.301 293.692C363.318 289.845 363.539 283.91 363.759 283.36C363.759 282.701 381.383 270.5 381.383 270.5Z" fill="#FFB4C4"/>
<path d="M371.8 294.132C372.791 294.022 373.672 293.253 373.893 292.373L374.333 290.725C374.333 290.725 376.536 292.044 378.739 290.395C380.942 288.746 380.502 285.998 380.502 285.998C380.502 285.998 382.154 286.548 383.806 285.009C385.348 283.47 384.797 281.052 384.797 281.052C384.797 281.052 386.89 281.382 387.551 278.964C388.212 276.546 385.238 275.996 385.238 275.996C385.238 275.996 389.864 275.556 389.313 272.369C388.652 269.181 385.899 269.291 385.899 269.291C385.899 269.291 387.881 265.884 385.568 263.576C383.255 261.267 379.951 263.136 379.951 263.136C379.951 263.136 381.493 258.52 377.087 256.321C372.681 254.123 371.69 257.64 371.69 257.64C371.69 257.64 370.148 254.782 367.835 254.563C365.521 254.343 363.759 257.201 363.759 257.201C363.759 257.201 358.913 253.683 354.066 256.761C349.22 259.839 349.44 264.015 349.44 264.015C349.44 264.015 344.153 262.476 341.509 265.994C338.756 269.511 340.187 275.886 342.831 278.084C338.976 283.14 341.619 286.878 344.814 287.317C341.84 293.033 344.263 296.99 348.338 297.979C352.414 298.968 353.185 296.44 353.185 296.44C353.185 296.44 357.04 299.298 361.005 297.649C364.089 299.738 367.174 294.462 367.174 294.462L371.8 294.132Z" fill="#133677"/>
<path d="M370.699 294.022C370.588 291.824 369.156 288.966 366.513 290.395C363.869 291.714 366.843 299.408 369.377 298.638C370.038 298.419 370.809 296.22 370.699 294.022Z" fill="#FFB4C4"/>
<path d="M369.267 299.957C370.058 299.957 370.699 299.318 370.699 298.529C370.699 297.739 370.058 297.1 369.267 297.1C368.476 297.1 367.835 297.739 367.835 298.529C367.835 299.318 368.476 299.957 369.267 299.957Z" fill="#B6E3F0"/>
<path d="M321.793 185.646C321.793 185.096 321.353 184.657 320.802 184.657C320.251 184.657 319.811 185.096 319.811 185.646C319.811 186.196 320.251 186.635 320.802 186.635C321.353 186.635 321.793 186.306 321.793 185.646Z" fill="#340AA4"/>
<path opacity="0.06" d="M488.336 328.975L512.789 308.97L538.674 318.973L513.781 339.857L488.336 328.975Z" fill="#00467F"/>
<path d="M488.336 327.546L512.789 307.542L538.674 317.544L513.781 338.428L488.336 327.546Z" fill="white"/>
<path opacity="0.06" d="M461.571 339.527C461.571 341.725 458.486 343.484 454.631 343.484C450.776 343.484 447.692 341.725 447.692 339.527C447.692 337.328 450.776 335.57 454.631 335.57C458.486 335.57 461.571 337.328 461.571 339.527Z" fill="#00467F"/>
<path d="M460.359 328.975L448.463 329.085C448.463 329.085 448.463 337.438 448.463 338.977C448.463 340.846 451.106 342.384 454.411 342.384C457.715 342.384 460.359 340.846 460.359 338.977C460.359 337.548 460.359 328.975 460.359 328.975Z" fill="#49F6CC"/>
<path d="M460.359 329.195C460.359 331.063 457.715 332.602 454.411 332.602C451.106 332.602 448.463 331.063 448.463 329.195C448.463 327.326 451.106 325.787 454.411 325.787C457.605 325.787 460.359 327.326 460.359 329.195Z" fill="#49F6CC"/>
<path d="M458.927 329.195C458.927 330.624 456.944 331.723 454.411 331.723C451.878 331.723 449.895 330.624 449.895 329.195C449.895 327.766 451.878 326.667 454.411 326.667C456.834 326.557 458.927 327.766 458.927 329.195Z" fill="#36CEA6"/>
<path d="M459.588 332.602C459.257 332.602 458.927 332.712 458.596 332.822C458.486 332.822 458.486 332.932 458.486 333.042V334.031C458.817 333.811 459.147 333.701 459.588 333.701C460.799 333.701 461.681 334.8 461.681 336.119C461.681 337.438 460.689 338.537 459.588 338.537C459.147 338.537 458.817 338.428 458.486 338.208V339.197C458.486 339.307 458.596 339.417 458.596 339.417C458.927 339.527 459.257 339.637 459.588 339.637C461.24 339.637 462.672 338.098 462.672 336.229C462.672 334.141 461.35 332.602 459.588 332.602Z" fill="#36CEA6"/>
<g opacity="0.85">
<path opacity="0.85" d="M565.99 277.535L560.593 281.052L398.345 180.26L392.948 54.6276L398.345 51.0005L565.99 148.275V277.535Z" fill="#4B84B3"/>
<path opacity="0.85" d="M560.593 281.052L392.948 183.778V54.6277L560.593 151.792V281.052Z" fill="#6BB5D6"/>
</g>
<path d="M431.831 115.961C433.152 116.07 434.474 116.51 435.906 117.28C438.329 118.598 440.532 120.907 442.295 123.545L450.225 115.191C446.26 109.476 441.524 104.639 436.237 101.672C432.712 99.6931 429.407 98.7039 426.323 98.7039L431.831 115.961Z" fill="#4B84B3"/>
<path d="M424.341 124.314C424.672 119.367 427.095 116.4 430.509 115.96L425.112 98.5935C417.402 99.0332 411.674 105.628 410.793 116.62L424.341 124.314Z" fill="#133677"/>
<path d="M451.437 116.839L443.506 125.303C445.599 128.93 446.921 133.217 446.921 137.174L460.469 144.868C460.139 135.305 456.724 125.193 451.437 116.839Z" fill="#BBDBED"/>
<path d="M428.196 138.383C425.883 134.646 424.451 130.139 424.341 125.852L410.682 118.158C410.682 118.378 410.682 118.598 410.682 118.708C410.462 128.38 413.766 139.152 419.053 147.945L428.196 138.383Z" fill="#232C51"/>
<path d="M447.472 139.152C447.141 143.659 445.048 146.516 442.185 147.286L448.463 167.51C455.733 166.081 460.8 158.827 461.13 147.506C461.13 147.286 461.13 147.066 461.13 146.846L447.472 139.152Z" fill="#F3F8FC"/>
<path d="M440.312 147.176C438.77 147.286 437.007 146.846 435.245 145.857C433.042 144.648 430.949 142.559 429.297 140.251L420.155 149.924C424.23 156.189 429.297 161.355 434.804 164.542C439.1 166.961 443.065 167.84 446.7 167.51L440.312 147.176Z" fill="#32CEA5"/>
<path d="M472.916 223.347L462.672 217.741L462.562 184.547L472.696 190.153L472.916 223.347Z" fill="#4B84B3"/>
<path d="M488.887 232.799L478.643 227.084L478.313 173.445L488.447 179.051L488.887 232.799Z" fill="#4B84B3"/>
<path d="M505.63 241.593L495.386 235.877L494.725 164.432L504.969 170.148L505.63 241.593Z" fill="#4B84B3"/>
<path d="M521.601 250.496L511.357 244.78L510.586 129.59L520.83 135.305L521.601 250.496Z" fill="#4B84B3"/>
<path d="M468.95 221.039L535.92 174.874L532.836 164.982L459.588 215.873L468.95 221.039Z" fill="#32CEA5"/>
<path d="M525.346 162.564L535.92 182.568L540.216 163.663L525.346 162.564Z" fill="#32CEA5"/>
<g opacity="0.89">
<path opacity="0.89" d="M495.716 257.42L492.522 259.619L413.105 210.377L410.462 148.935L413.656 146.736L495.716 194.219V257.42Z" fill="#BBDBED"/>
<path opacity="0.89" d="M492.522 259.619L410.462 212.135V148.935L492.522 196.418V259.619Z" fill="#E1F5FA"/>
</g>
<path d="M593.528 157.288L587.469 153.771C587.029 151.792 586.368 149.704 585.707 147.616L590.003 145.197L581.081 129.699L576.785 132.118C575.353 130.469 573.921 128.93 572.379 127.501V120.467L559.712 113.102L553.764 116.949L551.011 112.223L542.089 117.279L535.81 121.236C535.81 121.236 543.3 123.764 546.274 124.753C545.503 125.852 544.952 127.171 544.512 128.71L538.454 125.193L532.175 129.15L536.361 136.624L538.344 136.294V139.702L544.402 143.219C544.842 145.197 545.503 147.286 546.164 149.374L542.639 151.353L541.868 151.792L535.59 155.749C535.59 155.749 543.851 155.2 543.741 155.09L550.79 167.29L555.086 164.872C556.518 166.521 557.95 168.06 559.492 169.489V176.523L564.669 179.601L564.338 179.711L565.881 187.954L572.159 183.997V176.963C573.701 177.292 575.133 177.512 576.565 177.402L580.861 184.877L583.174 183.558L583.614 183.777C583.835 183.777 589.893 179.821 589.893 179.821L587.58 175.754L593.528 171.907V157.288ZM586.148 171.357C586.478 172.676 586.809 173.885 586.919 174.655L585.487 172.236C585.817 171.907 586.038 171.687 586.148 171.357ZM557.069 119.697C556.518 119.697 555.857 119.587 555.306 119.697L554.095 117.609L557.069 119.697ZM565.991 161.465C559.822 157.838 554.756 149.044 554.756 141.9C554.756 134.755 559.822 131.898 565.991 135.525C572.159 139.152 577.226 147.945 577.226 155.09C577.226 162.234 572.159 165.092 565.991 161.465Z" fill="#232C51"/>
<path d="M587.249 175.864V161.355L581.191 157.838C580.751 155.859 580.09 153.771 579.429 151.682L583.725 149.264L574.803 133.766L570.507 136.184C569.075 134.536 567.643 132.997 566.101 131.568V124.533L553.434 117.169V124.204C551.892 123.874 550.46 123.654 549.028 123.764L544.732 116.29L535.81 121.346L540.106 128.82C539.335 129.919 538.784 131.348 538.344 132.777L532.286 129.26V143.769L538.344 147.286C538.784 149.264 539.445 151.353 540.106 153.441L535.81 155.859L544.732 171.357L549.028 168.939C550.46 170.588 551.892 172.127 553.434 173.555V180.59L566.101 187.954V180.92C567.643 181.249 569.075 181.469 570.507 181.359L574.803 188.834L583.725 183.777L579.429 176.303C580.2 175.204 580.751 173.775 581.191 172.346L587.249 175.864ZM559.712 165.422C553.544 161.795 548.477 153.001 548.477 145.857C548.477 138.712 553.544 135.855 559.712 139.482C565.881 143.109 570.947 151.902 570.947 159.047C571.058 166.191 565.991 169.049 559.712 165.422Z" fill="#90A0D1"/>
<path d="M587.249 161.355L593.527 157.288V171.797L587.249 175.864V161.355Z" fill="#4B5E9B"/>
<path d="M574.802 133.766L580.971 129.699L589.892 145.197L583.724 149.264L574.802 133.766Z" fill="#4B5E9B"/>
<path d="M553.434 117.169L559.712 113.102L572.269 120.467L566.101 124.533L553.434 117.169Z" fill="#4B5E9B"/>
<path d="M331.596 142.999C336.443 142.999 340.298 139.042 340.298 134.316C340.298 133.766 340.298 133.327 340.188 132.887H323.005C322.895 133.327 322.895 133.876 322.895 134.316C322.895 139.042 326.75 142.999 331.596 142.999Z" fill="#C7DFF0"/>
<path d="M342.39 133.217C342.39 136.404 337.544 139.042 331.596 139.042C325.648 139.042 320.801 136.404 320.801 133.217C320.801 130.029 325.648 127.391 331.596 127.391C337.544 127.391 342.39 130.029 342.39 133.217Z" fill="#F3F8FC"/>
<path d="M342.39 131.678C342.39 134.865 337.544 137.503 331.596 137.503C325.648 137.503 320.801 134.865 320.801 131.678C320.801 128.49 325.648 125.852 331.596 125.852C337.544 125.852 342.39 128.49 342.39 131.678Z" fill="#C7DFF0"/>
<path d="M342.39 130.359C342.39 133.546 337.544 136.184 331.596 136.184C325.648 136.184 320.801 133.546 320.801 130.359C320.801 127.171 325.648 124.533 331.596 124.533C337.544 124.533 342.39 127.171 342.39 130.359Z" fill="#F3F8FC"/>
<path d="M342.39 128.82C342.39 132.008 337.544 134.646 331.596 134.646C325.648 134.646 320.801 132.008 320.801 128.82C320.801 125.633 325.648 122.995 331.596 122.995C337.544 122.995 342.39 125.633 342.39 128.82Z" fill="#C7DFF0"/>
<path d="M342.39 127.611C342.39 130.799 337.544 133.437 331.596 133.437C325.648 133.437 320.801 130.799 320.801 127.611C320.801 124.424 325.648 121.786 331.596 121.786C337.544 121.786 342.39 124.314 342.39 127.611Z" fill="#F3F8FC"/>
<path d="M342.39 125.962C342.39 129.15 337.544 131.788 331.596 131.788C325.648 131.788 320.801 129.15 320.801 125.962C320.801 122.775 325.648 120.137 331.596 120.137C337.544 120.137 342.39 122.775 342.39 125.962Z" fill="#C7DFF0"/>
<path d="M331.926 129.37C344.275 129.37 354.286 119.38 354.286 107.057C354.286 94.734 344.275 84.7443 331.926 84.7443C319.577 84.7443 309.566 94.734 309.566 107.057C309.566 119.38 319.577 129.37 331.926 129.37Z" fill="#FFE04F"/>
<path d="M342.39 123.764C342.39 120.577 337.544 117.939 331.596 117.939C325.648 117.939 320.801 120.577 320.801 123.764C320.801 123.984 320.801 124.314 320.911 124.533C320.801 124.753 320.801 125.083 320.801 125.303C320.801 128.49 325.648 131.128 331.596 131.128C337.544 131.128 342.39 128.49 342.39 125.303C342.39 125.083 342.39 124.753 342.28 124.533C342.28 124.314 342.39 124.094 342.39 123.764Z" fill="#FFCA65"/>
<path opacity="0.41" d="M331.596 117.939C325.648 117.939 320.801 120.577 320.801 123.764C320.801 123.984 320.801 124.314 320.911 124.533C320.801 124.753 320.801 125.083 320.801 125.303C320.801 125.743 320.911 126.072 321.022 126.402C324.216 128.271 327.961 129.26 331.926 129.26C335.561 129.26 338.866 128.38 341.95 126.952C342.28 126.402 342.39 125.852 342.39 125.303C342.39 125.083 342.39 124.753 342.28 124.533C342.39 124.314 342.39 123.984 342.39 123.764C342.39 120.577 337.544 117.939 331.596 117.939Z" fill="#FFE04F"/>
<path d="M340.738 103.869C340.518 103.32 340.187 102.88 339.857 102.55C338.535 101.122 336.993 100.132 335.561 100.132C334.46 98.1539 332.918 96.6151 331.045 95.8457C329.944 95.406 328.952 95.6258 328.291 96.2853C326.97 94.4168 325.428 93.0978 324.106 92.878C321.903 92.5482 321.132 94.9664 321.352 97.2746C321.352 97.7142 321.462 98.044 321.572 98.4836L321.352 98.3737L321.903 100.902L323.114 102.331L323.996 102.55C324.106 102.66 324.326 102.77 324.436 102.88L328.512 122.445C328.512 122.555 328.512 122.555 328.622 122.665L328.402 122.555C328.402 122.555 328.291 123.105 328.402 123.105L328.622 123.544L329.173 122.995C329.283 122.885 329.283 122.775 329.283 122.555L324.546 99.6927C324.436 99.3629 324.216 99.1431 323.996 99.0332C323.885 99.0332 323.885 99.0332 323.775 99.1431L323.225 99.5828L323.445 100.242L323.775 100.352L323.996 101.671C322.784 100.682 322.123 98.9233 322.013 97.6043C321.793 95.6259 322.343 93.6474 324.216 93.9771C324.436 93.9771 324.767 94.087 324.987 94.197C324.987 94.3069 324.987 94.4168 324.987 94.4168C324.987 94.4168 326.749 96.3953 327.41 97.2746C327.52 97.8241 327.3 98.2638 327.19 98.9233C326.97 100.352 327.08 102.001 327.41 103.43C327.19 103.1 326.97 102.88 326.97 102.88V103.32L328.291 106.068H329.283C329.503 106.178 329.833 106.178 330.054 105.958C331.265 105.408 331.486 103.21 330.384 100.352C330.054 99.363 329.503 98.2638 328.952 97.3845C329.393 96.8349 330.164 96.6151 331.155 97.0547C331.375 97.1647 331.706 97.2746 331.926 97.3845C331.926 97.4944 331.926 97.7142 331.926 97.7142C332.036 97.7142 333.358 99.4729 334.239 100.572C333.689 100.792 333.248 101.341 332.918 101.891C332.367 102.88 332.367 104.309 332.587 105.518C332.477 105.408 332.477 105.298 332.367 105.298L332.477 106.507L333.799 108.486H334.129C334.68 108.926 335.341 109.035 336.002 108.376C336.993 107.277 336.993 104.309 336.002 101.671C336.002 101.561 335.892 101.451 335.892 101.341C336.332 101.341 336.883 101.561 337.323 101.781L336.552 101.671L338.976 103.979L340.297 105.738L340.628 106.068C340.738 106.727 340.848 107.387 340.848 108.046C340.848 108.926 340.518 110.245 339.196 110.354L339.526 109.035C339.637 108.816 339.416 108.486 339.306 108.266C339.196 108.156 339.086 108.156 338.976 108.156C338.976 108.156 338.976 108.156 338.866 108.266L338.315 108.706L338.535 109.035L338.205 110.354C338.205 110.354 338.095 110.464 338.095 110.574L333.909 125.633C333.909 125.742 333.909 125.962 333.909 126.072C333.799 126.182 333.799 126.292 333.799 126.292L334.019 127.061L334.57 126.512L334.68 126.402L338.755 111.344C340.408 111.563 341.399 110.574 341.509 108.486C341.84 106.947 341.399 105.188 340.738 103.869ZM329.613 104.859C329.062 105.079 328.842 104.749 328.732 104.639C328.181 103.869 327.741 101.561 328.071 99.5828C328.071 99.253 328.181 98.8134 328.402 98.3737L329.613 100.572L330.054 101.781L330.274 101.671C330.384 102.88 330.604 104.419 329.613 104.859ZM335.561 107.387C335.231 107.716 334.68 108.046 334.129 107.277C333.468 106.397 332.918 104.309 333.689 102.77C334.019 102.111 334.46 101.671 335.01 101.451L335.121 101.561L335.781 102.88H336.002C336.332 104.749 336.332 106.507 335.561 107.387Z" fill="white"/>
<path d="M328.401 106.397C328.071 106.288 327.851 105.958 327.741 105.848C326.749 104.529 326.309 101.781 326.639 99.4729C326.749 98.7035 326.97 98.044 327.3 97.4944C326.198 95.9556 324.877 94.7465 323.775 94.6366C321.903 94.4168 321.352 96.3953 321.572 98.2638C321.793 99.6927 322.453 101.671 323.885 102.55C324.106 102.66 324.326 102.99 324.216 103.32C324.216 103.54 323.996 103.65 323.775 103.54C322.233 102.55 321.022 100.352 320.691 97.9341C320.361 95.6258 321.132 93.2077 323.445 93.5375C324.877 93.7573 326.419 95.1862 327.63 96.9448C328.291 96.1754 329.283 96.0655 330.384 96.5052C332.146 97.2746 333.799 98.7035 334.9 100.792C336.332 100.792 337.984 101.781 339.196 103.21C340.408 104.529 341.179 107.057 341.068 109.145C340.958 111.234 339.857 112.333 338.094 111.893C337.874 111.893 337.654 111.563 337.544 111.234C337.434 110.904 337.544 110.684 337.764 110.794C339.747 111.234 340.077 109.585 340.187 108.596C340.297 106.947 339.637 104.969 338.755 103.979C337.764 102.77 336.442 102.001 335.231 102.001C335.231 102.111 335.341 102.221 335.341 102.331C336.332 105.079 336.332 107.936 335.341 109.035C334.46 110.025 333.468 109.365 332.807 108.596C331.706 107.167 331.155 104.419 332.146 102.66C332.587 101.781 333.248 101.232 334.019 101.012C333.358 99.8026 332.146 98.4836 330.384 97.7142C329.283 97.2746 328.622 97.6043 328.181 98.044C328.732 99.0332 329.283 100.022 329.613 101.012C330.715 103.869 330.604 105.958 329.283 106.617C329.062 106.617 328.732 106.507 328.401 106.397ZM327.961 98.4836C327.63 99.0332 327.52 99.6927 327.41 100.132C327.08 102.111 327.52 104.419 328.071 105.188C328.181 105.298 328.401 105.628 328.952 105.408C330.384 104.749 329.393 101.891 329.062 101.012C328.842 100.132 328.401 99.253 327.961 98.4836ZM334.79 101.781C334.129 101.891 333.578 102.331 333.138 103.21C332.367 104.749 332.917 106.837 333.578 107.716C334.239 108.486 334.79 108.156 335.01 107.826C335.891 106.947 335.891 104.419 335.01 102.221C334.9 102.111 334.9 102.001 334.79 101.781Z" fill="white"/>
<path d="M328.291 123.654C328.071 123.544 327.961 123.324 327.961 123.105L323.224 100.242C323.114 99.9125 323.335 99.6927 323.445 99.8026C323.665 99.8026 323.885 100.132 323.995 100.462L328.732 123.324C328.842 123.654 328.622 123.874 328.511 123.764C328.401 123.654 328.401 123.654 328.291 123.654Z" fill="white"/>
<path d="M334.019 126.952C334.019 126.952 333.909 126.952 333.909 126.842C333.689 126.622 333.579 126.292 333.689 126.072L338.425 108.706C338.535 108.486 338.756 108.486 338.976 108.706C339.196 108.926 339.306 109.255 339.196 109.475L334.46 126.842C334.35 126.952 334.129 127.061 334.019 126.952Z" fill="white"/>
<path d="M331.926 128.161C319.81 128.161 309.897 118.488 309.566 106.398C309.566 106.617 309.566 106.837 309.566 106.947C309.566 119.258 319.59 129.26 331.926 129.26C344.263 129.26 354.286 119.258 354.286 106.947C354.286 106.727 354.286 106.507 354.286 106.398C353.956 118.488 344.043 128.161 331.926 128.161Z" fill="#FFEB8D"/>
<path d="M540.766 309.85L534.818 310.509C534.708 310.509 529.091 313.257 529.091 313.257C529.091 313.257 529.642 314.466 531.184 314.026C532.175 313.697 536.03 312.488 536.03 312.488L543.41 311.938L540.766 309.85Z" fill="url(#paint15_linear_450_3713)"/>
<path d="M531.625 312.488L540.436 311.059V313.147L532.616 314.466C532.616 314.466 528.871 316.225 527.99 316.554C526.998 316.774 526.117 315.565 526.117 315.565C526.117 315.565 531.514 312.598 531.625 312.488Z" fill="url(#paint16_linear_450_3713)"/>
<path d="M547.375 321.72C547.375 321.72 542.088 323.918 541.978 323.918C541.758 323.918 538.454 323.808 538.454 323.808L534.929 322.159C534.929 322.159 535.149 319.741 538.454 321.17L540.987 321.06C541.868 320.95 542.088 319.961 541.538 319.192C540.987 318.422 539.004 318.422 539.004 318.422L534.158 318.862C534.158 318.862 530.413 320.291 528.43 320.84C526.447 321.39 526.007 320.071 526.007 320.071L532.506 316.993L536.911 315.784L531.955 316.114C531.955 316.114 528.981 317.873 527.108 318.312C525.346 318.752 524.685 317.323 524.685 317.323L530.413 314.355C530.413 314.355 537.462 312.817 538.123 312.707C538.784 312.597 538.013 311.827 539.335 311.388C540.216 311.058 540.326 310.618 541.317 310.288C541.868 310.179 544.512 311.058 546.054 311.607C546.494 311.717 550.239 314.355 550.349 314.465C550.46 314.465 552.993 314.905 552.993 314.905C552.993 314.905 552.663 321.17 552.773 321.5C552.883 321.5 547.375 321.72 547.375 321.72Z" fill="#FFB0C1"/>
<path d="M592.095 451.2C589.672 451.2 585.156 450.211 585.156 450.211L576.454 449.551C576.454 449.551 571.057 448.232 569.405 448.123C566.982 448.013 563.457 449.002 563.457 452.739C566.431 456.916 569.295 457.685 576.454 459.664C583.614 461.642 584.055 466.588 589.452 467.577C594.849 468.567 596.061 466.258 596.061 466.258V454.827C596.061 452.849 594.519 451.2 592.095 451.2Z" fill="#232C51"/>
<path d="M479.745 327.876L482.719 321.83C483.049 321.061 484.04 320.841 484.811 321.281C485.362 321.611 485.583 322.38 485.362 322.93L483.269 327.876C483.269 327.876 481.948 333.591 481.507 334.8C481.066 336.009 478.974 336.119 478.974 336.119C478.974 336.119 479.635 327.986 479.745 327.876Z" fill="url(#paint17_linear_450_3713)"/>
<path d="M477.322 330.404L481.948 323.369L484.041 325.128L480.846 330.734C480.846 330.734 479.084 336.339 478.533 337.548C477.982 338.757 475.89 338.647 475.89 338.647C475.89 338.647 477.322 330.514 477.322 330.404Z" fill="url(#paint18_linear_450_3713)"/>
<path d="M473.907 331.833L477.872 326.447C478.313 325.787 479.304 325.567 479.965 326.227C480.406 326.667 480.516 327.436 480.185 327.986L477.322 332.492C477.322 332.492 475.229 337.988 474.568 339.087C473.907 340.296 471.924 340.076 471.924 340.076C471.924 340.076 473.797 331.943 473.907 331.833Z" fill="url(#paint19_linear_450_3713)"/>
<path d="M539.555 455.926H537.021L526.778 458.564C526.778 458.564 518.406 459.554 515.543 459.334C512.679 459.224 506.18 462.082 508.053 467.028C509.815 471.974 531.294 468.896 534.929 469.996C538.453 471.095 546.494 473.513 550.459 469.886C551.781 465.379 550.019 460.213 548.917 457.575C548.477 456.586 547.485 455.926 546.384 455.926H542.088H539.555Z" fill="#232C51"/>
<path d="M549.468 236.427C549.468 236.427 554.755 233.019 560.153 233.569C568.965 234.338 595.62 264.235 598.594 268.522C601.899 273.248 601.128 279.733 596.942 283.69L559.382 318.863L554.645 310.509L580.53 276.546L553.654 245.55C553.654 245.44 546.715 239.834 549.468 236.427Z" fill="#5EA2C7"/>
<path d="M562.796 235.877C553.213 232.03 569.515 263.686 569.515 263.686L580.64 276.546L574.582 284.569L578.107 299.298L589.452 283.25C593.197 277.974 593.087 270.94 589.232 265.884C581.191 255.002 567.973 237.965 562.796 235.877Z" fill="#4B84B3"/>
<path d="M585.266 438.78C585.266 438.78 585.817 451.31 585.817 451.42C585.817 451.42 586.037 453.288 589.011 453.618C590.884 453.838 592.976 453.508 593.417 451.42C594.408 447.353 594.849 437.131 594.849 437.131L585.266 438.78Z" fill="#FFB0C1"/>
<path d="M538.233 443.946C538.233 443.946 538.784 456.476 538.784 456.586C538.784 456.586 539.004 458.454 541.978 458.784C543.851 459.004 545.944 458.674 546.384 456.586C547.376 452.519 547.816 442.297 547.816 442.297L538.233 443.946Z" fill="#FFB0C1"/>
<path d="M592.756 312.598C592.756 312.598 599.585 316.554 602.119 328.425C604.652 340.296 600.797 350.628 600.797 350.628C600.797 350.628 598.153 374.26 597.382 385.471C605.093 398.771 598.374 426.14 595.069 447.683C594.849 449.002 593.968 449.991 592.646 450.321C587.579 451.64 585.046 449.991 584.605 446.364C584.165 442.297 584.826 425.48 573.04 387.999C571.277 381.734 559.712 335.35 559.712 335.35C559.712 335.35 574.802 315.675 580.75 315.236C586.808 314.686 592.756 312.598 592.756 312.598Z" fill="#30CDFF"/>
<path d="M581.521 320.841C581.521 320.841 589.011 324.908 590.113 337.548C590.884 347.111 581.411 358.982 573.701 364.038C565.44 385.911 560.263 388.878 556.738 395.363C561.254 409.213 547.596 453.508 547.596 453.508C547.596 453.508 546.494 455.047 542.529 455.047C538.453 455.047 537.793 452.849 537.793 452.849L534.048 393.495C533.937 390.967 534.158 388.439 534.819 385.911L552.332 330.734L581.521 320.841Z" fill="#68E0FC"/>
<path d="M494.945 321.83L492.742 322.27L485.252 321.061C484.481 320.951 483.71 321.061 483.049 321.501C481.397 322.6 478.093 324.908 476.551 326.996L471.374 333.262C471.263 333.371 469.281 339.747 469.281 339.747C469.281 339.747 470.933 340.076 471.484 339.197C472.034 338.318 474.127 334.031 474.127 334.031L474.568 333.371C475.339 332.272 476.771 331.833 477.872 332.382C478.753 332.822 479.855 332.822 481.067 332.602C483.93 331.943 493.513 331.393 497.258 327.876C501.334 324.139 494.945 321.83 494.945 321.83Z" fill="#FFB0C1"/>
<path d="M583.394 293.692C576.455 280.503 577.887 258.52 569.405 243.241C565.66 236.427 560.593 233.019 552.442 234.338C544.291 235.657 520.279 262.586 520.279 262.586C520.279 262.586 520.61 270.94 527.659 283.25C534.709 295.561 550.35 336.779 550.35 336.779C550.35 336.779 561.585 337.548 577.997 329.195C590.554 322.82 594.849 313.917 594.849 313.917C594.849 313.917 590.664 307.432 583.394 293.692Z" fill="#5EA2C7"/>
<path d="M535.039 266.763C535.039 266.763 536.361 271.709 535.81 279.623C535.149 290.944 542.309 312.927 538.233 306.662C535.59 299.847 528.65 285.229 528.65 285.229L535.039 266.763Z" fill="#4B84B3"/>
<path d="M527.108 259.619C533.166 259.509 536.911 264.125 534.929 276.655C533.717 284.459 530.963 295.891 529.091 303.585C527.769 308.641 524.575 312.927 520.169 315.675L498.47 328.645C498.47 328.645 495.386 328.315 493.403 325.787C491.31 323.259 492.522 321.391 492.522 321.391L513.229 300.397C513.229 300.397 516.093 276.216 516.975 270.72C517.746 264.895 520.389 259.729 527.108 259.619Z" fill="#5EA2C7"/>
<path d="M526.668 244.78L529.421 242.912L534.709 249.726C534.709 249.726 539.114 252.474 544.842 247.198C550.68 241.922 548.036 239.724 548.036 239.724L540.987 229.062L524.355 225.545L519.949 226.754L520.059 230.711L526.668 244.78Z" fill="url(#paint20_linear_450_3713)"/>
<path d="M548.036 239.724L547.045 238.295C547.045 239.504 546.384 241.593 543.08 244.56C538.123 249.067 534.158 247.968 532.836 247.418L534.598 249.726C534.598 249.726 539.004 252.474 544.732 247.198C550.68 241.922 548.036 239.724 548.036 239.724Z" fill="#4B84B3"/>
<path d="M510.366 221.478L511.798 224.996C511.908 225.325 512.128 225.655 512.459 225.985L513.78 227.414C514.111 227.853 514.331 228.293 514.331 228.843V229.832C514.331 230.162 514.441 230.601 514.661 230.931C516.093 233.349 522.262 243.461 526.227 244.67C529.421 245.66 522.372 234.009 522.372 234.009L515.102 221.698L510.366 221.478Z" fill="#FFB0C1"/>
<path d="M540.877 225.545C541.097 226.095 541.758 226.424 542.309 225.655C542.859 224.886 543.41 223.457 542.639 219.5C542.309 217.851 540.656 216.092 539.885 216.312C538.564 216.752 539.996 223.677 540.877 225.545Z" fill="#FFB0C1"/>
<path d="M512.128 206.53C520.169 201.913 527.989 203.452 527.989 203.452C527.989 203.452 535.81 204.002 537.903 209.168C539.995 214.444 541.978 219.5 542.198 222.138C542.419 224.556 542.198 231.151 542.639 232.799C543.08 234.448 539.114 237.416 534.708 239.724C530.413 241.922 525.676 231.041 523.253 229.942C520.83 228.843 519.177 230.821 519.177 230.821L520.83 234.778C520.83 234.778 520.059 234.448 519.949 234.448C519.838 234.448 515.653 227.524 515.653 227.524L514.111 226.754L510.476 222.248C510.366 222.138 503.647 211.476 512.128 206.53Z" fill="#232C51"/>
<path d="M522.262 237.416C522.702 237.856 523.363 238.075 523.694 237.086C524.024 236.207 524.244 234.668 522.372 231.151C521.601 229.612 519.618 228.403 518.847 228.843C517.746 229.502 520.94 235.877 522.262 237.416Z" fill="#FFB0C1"/>
<path d="M485.693 250.056L485.362 200.155L428.085 167.84L428.416 217.741L485.693 250.056Z" fill="#F3F8FC"/>
<path d="M426.213 191.362L426.323 167.84L416.079 162.124L415.969 186.525C419.494 187.954 422.909 189.603 426.213 191.362Z" fill="#232C51"/>
<path d="M416.08 188.724V210.707L426.323 216.422V193.56C422.799 192.021 419.494 190.262 416.08 188.724Z" fill="#49F6CC"/>
<path d="M457.385 190.043L432.381 176.413L432.271 190.702L457.385 204.222V190.043Z" fill="#294C86"/>
<path d="M442.184 211.806C442.515 208.069 440.642 203.672 437.889 202.133C435.135 200.594 432.712 202.353 432.271 206.09C431.941 209.827 433.813 214.224 436.567 215.763C439.321 217.301 441.854 215.543 442.184 211.806Z" fill="#4A8DBD"/>
<path d="M456.834 221.149C457.164 217.411 455.292 213.015 452.538 211.476C449.784 209.937 447.361 211.696 446.921 215.433C446.59 219.17 448.463 223.567 451.216 225.105C453.97 226.644 456.393 224.886 456.834 221.149Z" fill="#32CEA5"/>
<path d="M474.348 230.491C474.678 226.754 472.805 222.358 470.052 220.819C467.298 219.28 464.875 221.039 464.434 224.776C464.104 228.513 465.976 232.909 468.73 234.448C471.484 235.987 474.017 234.228 474.348 230.491Z" fill="#4A8DBD"/>
<path d="M474.348 207.189C474.678 203.452 472.805 199.056 470.052 197.517C467.298 195.978 464.875 197.737 464.434 201.474C464.104 205.211 465.976 209.607 468.73 211.146C471.484 212.685 474.017 210.926 474.348 207.189Z" fill="white"/>
<defs>
<linearGradient id="paint0_linear_450_3713" x1="399.318" y1="245.676" x2="389.326" y2="238.796" gradientUnits="userSpaceOnUse">
<stop stop-color="#FFB0C1"/>
<stop offset="1" stop-color="#FF70C1"/>
</linearGradient>
<linearGradient id="paint1_linear_450_3713" x1="308.506" y1="198.678" x2="319.846" y2="194.199" gradientUnits="userSpaceOnUse">
<stop stop-color="#FFB0C1"/>
<stop offset="1" stop-color="#FF70C1"/>
</linearGradient>
<linearGradient id="paint2_linear_450_3713" x1="313.414" y1="189.084" x2="329.04" y2="182.84" gradientUnits="userSpaceOnUse">
<stop stop-color="#FFB0C1"/>
<stop offset="1" stop-color="#FF70C1"/>
</linearGradient>
<linearGradient id="paint3_linear_450_3713" x1="338.933" y1="181.858" x2="343.569" y2="196.689" gradientUnits="userSpaceOnUse">
<stop stop-color="#FFB0C1"/>
<stop offset="1" stop-color="#FF70C1"/>
</linearGradient>
<linearGradient id="paint4_linear_450_3713" x1="297.461" y1="442.735" x2="395.28" y2="442.735" gradientUnits="userSpaceOnUse">
<stop offset="2e-06" stop-color="#3BADEA"/>
<stop offset="1" stop-color="#4AFFC7"/>
</linearGradient>
<linearGradient id="paint5_linear_450_3713" x1="356.229" y1="440" x2="395.445" y2="440" gradientUnits="userSpaceOnUse">
<stop offset="2e-06" stop-color="#3BADEA"/>
<stop offset="1" stop-color="#4AFFC7"/>
</linearGradient>
<linearGradient id="paint6_linear_450_3713" x1="402.268" y1="296.663" x2="402.479" y2="298.401" gradientUnits="userSpaceOnUse">
<stop stop-color="#FFB0C1"/>
<stop offset="1" stop-color="#FF9CA8"/>
</linearGradient>
<linearGradient id="paint7_linear_450_3713" x1="405.864" y1="297.483" x2="405.988" y2="300.344" gradientUnits="userSpaceOnUse">
<stop stop-color="#FFB0C1"/>
<stop offset="1" stop-color="#FF9CA8"/>
</linearGradient>
<linearGradient id="paint8_linear_450_3713" x1="428.571" y1="309.235" x2="433.738" y2="309.235" gradientUnits="userSpaceOnUse">
<stop stop-color="#FFB0C1"/>
<stop offset="1" stop-color="#FF9CA8"/>
</linearGradient>
<linearGradient id="paint9_linear_450_3713" x1="431.985" y1="311.953" x2="437.152" y2="311.953" gradientUnits="userSpaceOnUse">
<stop stop-color="#FFB0C1"/>
<stop offset="1" stop-color="#FF9CA8"/>
</linearGradient>
<linearGradient id="paint10_linear_450_3713" x1="433.529" y1="314.052" x2="438.693" y2="314.052" gradientUnits="userSpaceOnUse">
<stop stop-color="#FFB0C1"/>
<stop offset="1" stop-color="#FF9CA8"/>
</linearGradient>
<linearGradient id="paint11_linear_450_3713" x1="420.908" y1="311.874" x2="427.004" y2="307.654" gradientUnits="userSpaceOnUse">
<stop stop-color="#FFB0C1"/>
<stop offset="1" stop-color="#FF9CA8"/>
</linearGradient>
<linearGradient id="paint12_linear_450_3713" x1="427.788" y1="309.33" x2="426.21" y2="300.58" gradientUnits="userSpaceOnUse">
<stop stop-color="#FFB0C1"/>
<stop offset="1" stop-color="#FF9CA8"/>
</linearGradient>
<linearGradient id="paint13_linear_450_3713" x1="413.707" y1="330.582" x2="404.102" y2="343.066" gradientUnits="userSpaceOnUse">
<stop stop-color="#FFB0C1"/>
<stop offset="1" stop-color="#FF9CA8"/>
</linearGradient>
<linearGradient id="paint14_linear_450_3713" x1="346.629" y1="297.232" x2="376.218" y2="297.232" gradientUnits="userSpaceOnUse">
<stop stop-color="#FFB0C1"/>
<stop offset="1" stop-color="#FF9CA8"/>
</linearGradient>
<linearGradient id="paint15_linear_450_3713" x1="536.219" y1="310.423" x2="536.337" y2="312.074" gradientUnits="userSpaceOnUse">
<stop stop-color="#FFB0C1"/>
<stop offset="1" stop-color="#FF9CA8"/>
</linearGradient>
<linearGradient id="paint16_linear_450_3713" x1="533.038" y1="311.833" x2="533.44" y2="314.511" gradientUnits="userSpaceOnUse">
<stop stop-color="#FFB0C1"/>
<stop offset="1" stop-color="#FF9CA8"/>
</linearGradient>
<linearGradient id="paint17_linear_450_3713" x1="479.325" y1="327.512" x2="482.499" y2="329.051" gradientUnits="userSpaceOnUse">
<stop stop-color="#FFB0C1"/>
<stop offset="1" stop-color="#FF9CA8"/>
</linearGradient>
<linearGradient id="paint18_linear_450_3713" x1="480.379" y1="331.669" x2="477.983" y2="330.601" gradientUnits="userSpaceOnUse">
<stop stop-color="#FFB0C1"/>
<stop offset="1" stop-color="#FF9CA8"/>
</linearGradient>
<linearGradient id="paint19_linear_450_3713" x1="476.8" y1="333.489" x2="474.301" y2="332.163" gradientUnits="userSpaceOnUse">
<stop stop-color="#FFB0C1"/>
<stop offset="1" stop-color="#FF9CA8"/>
</linearGradient>
<linearGradient id="paint20_linear_450_3713" x1="543.657" y1="226.491" x2="527.045" y2="242.048" gradientUnits="userSpaceOnUse">
<stop stop-color="#FFB0C1"/>
<stop offset="1" stop-color="#FF9CA8"/>
</linearGradient>
</defs>
</svg>
